<?xml version="1.0" encoding="UTF-8"?>
<svg id="Layer_2" data-name="Layer 2" xmlns="http://www.w3.org/2000/svg" viewBox="0 0 1830 1174">
  <defs>
    <style>
      .cls-1 {
        fill: #442f2a;
      }
    </style>
  </defs>
  <g id="Layer_1-2" data-name="Layer 1">
    <path class="cls-1" d="M1795,1174H35c-19.3,0-35-15.7-35-35V35C0,15.7,15.7,0,35,0h1760c19.3,0,35,15.7,35,35v1104c0,19.3-15.7,35-35,35ZM35,30c-2.76,0-5,2.24-5,5v1104c0,2.76,2.24,5,5,5h1760c2.76,0,5-2.24,5-5V35c0-2.76-2.24-5-5-5H35Z"/>
    <rect class="cls-1" x="28.44" y="127" width="1786.56" height="30"/>
    <path class="cls-1" d="M1015.19,625.06h-200.38c-8.28,0-15-6.72-15-15s6.72-15,15-15h200.38c8.28,0,15,6.72,15,15s-6.72,15-15,15Z"/>
    <path class="cls-1" d="M915,725.25c-8.28,0-15-6.72-15-15v-200.38c0-8.28,6.72-15,15-15s15,6.72,15,15v200.38c0,8.28-6.72,15-15,15Z"/>
    <path class="cls-1" d="M240.51,984.07c-16.6,5.45-32.08,6.27-46.28,2.41-16.89-4.59-32.55-14.72-44.11-28.53-12.2-14.57-18.58-31.97-17.99-49,1.04-29.59,6.73-62.69,41.11-104.21,11.88-14.35,27.92-23.59,43.43-32.53,12.94-7.46,25.16-14.5,34.89-24.17,43.77-43.51,70.41-94.86,75-144.6,1.08-11.69,1.02-23.83.97-35.58-.06-12-.12-24.41,1-36.74,3.63-40.11,19.97-79.11,46.02-109.82,15.61-18.41,42.13-37.65,69.76-36.46,36.38,1.57,85.07,38.4,85.55,38.77,9.6,7.41,37.75,38.76,63.55,76.09,22.87,33.08,49.82,79.65,48.38,113.64-1.22,28.84-4.06,48.52-33.1,78.62-19.37,20.08-42.46,38.85-64.78,57-4.98,4.05-9.69,7.88-14.38,11.74-28.58,23.52-53.67,40.2-77.94,56.32-33.37,22.17-64.89,43.12-98.24,78.23-12.75,13.43-60.9,60.78-79.47,72.56-11.56,7.33-22.7,12.76-33.37,16.26ZM426.2,403.28c-15.58,5.12-29.9,16.89-39.56,28.27-23.95,28.24-38.99,64.11-42.32,101-1.05,11.58-.99,23.61-.93,35.24.06,12.12.12,24.66-1.03,37.11-2.61,28.21-11.46,56.48-26.32,84.02-13.41,24.87-31.35,48.55-53.29,70.36-11.2,11.13-24.9,19.03-38.16,26.66-14.95,8.62-29.08,16.75-39.14,28.9-29.6,35.76-36.39,63.7-37.48,94.65-.93,26.65,21.21,53.74,50.41,61.67,18.86,5.12,41.4-.51,67.01-16.76,15.5-9.83,60.72-53.51,76.47-70.09,34.58-36.41,66.82-57.83,100.96-80.51,23.94-15.9,48.69-32.35,76.64-55.36,4.73-3.89,9.68-7.91,14.46-11.8,21.96-17.86,44.66-36.32,63.37-55.71,24.41-25.29,27.48-40.23,28.67-68.28.98-23.1-15.21-60.02-45.58-103.95-25.39-36.73-52.68-66.76-60.2-72.55-14.41-11.12-52.09-34.43-76.55-35.49h0c-5.86-.25-11.73.73-17.42,2.6Z"/>
    <path class="cls-1" d="M503.74,365.74c-1.57.51-3.16.97-4.79,1.37-11.1,2.73-25.84,1.7-33.94-9.37-6.07-8.3-4.09-26.31-3.34-31.63,3.52-24.97,20.25-54.76,56.59-63.46h0c11.72-2.81,21.24-1.39,28.28,4.21,9.4,7.47,10.04,19.11,10.01,22.5-.08,10.14-2.51,21.27-6.5,29.78-11.69,24.92-26.88,40.22-46.31,46.6ZM516.96,279.48c-25.17,8.27-36.97,30.23-39.59,48.84-1.24,8.8-.76,18.04.48,20.11,3.21,4.39,11.02,4.82,17.32,3.27,17.03-4.18,29.91-16.68,40.53-39.31,3.02-6.44,4.94-15.32,5-23.17.02-3.1-1.02-7.57-4.03-9.96-3.78-3-10.09-2.31-14.72-1.2-1.72.41-3.38.88-4.99,1.41Z"/>
    <path class="cls-1" d="M580.43,411.24c-.64.21-1.28.4-1.92.58-8.66,2.37-21.74,5.96-33.63-8.47-12.24-14.85-11.48-38.73,1.77-55.56,10.66-13.54,25.53-22.99,39.79-25.28h0c13.45-2.16,23.45,0,29.73,6.4,6.46,6.59,14.92,21.98-1.05,51.09-6.24,11.37-18.94,26.07-34.69,31.24ZM583.98,339.39c-7.57,2.49-16.99,8.18-24.87,18.19-7.54,9.58-10.34,25.54-1.99,35.67,4.95,6.01,8.26,5.72,17.2,3.27,11.03-3.03,21.68-14.64,26.9-24.16,4.74-8.64,11.51-24.33,3.63-32.36-2.37-2.42-8.17-3.09-15.91-1.85-1.53.24-3.2.65-4.97,1.23Z"/>
    <path class="cls-1" d="M630.49,466.96c-11.59,3.81-26.8,4.1-35.88-6.6-5.88-6.92-7.57-17.2-4.41-26.84,2.26-6.89,6.77-13.36,13.79-19.79,12.41-11.37,21.79-17.04,32.37-19.57h0c7.26-1.74,14.99-2.99,22.32-.4,7.81,2.76,13.5,10.63,14.48,20.04.68,6.53-.88,13.56-4.64,20.88-7.05,13.72-19.38,24.75-34.73,31.05-1.06.44-2.18.85-3.32,1.22ZM637.33,410.35c-6.79,2.23-13.58,6.78-22.64,15.07-4.96,4.54-8.05,8.81-9.44,13.04-1.41,4.3-.84,8.97,1.43,11.63,4.17,4.91,13.86,3.94,21.1.97,11.69-4.8,21.4-13.41,26.65-23.63,2.33-4.54,3.33-8.57,2.97-11.99-.33-3.16-2.05-6.06-4-6.75-3.46-1.22-8.69-.25-13.34.87-.91.22-1.82.48-2.73.77Z"/>
    <path class="cls-1" d="M663.25,528.82c-15.05,4.94-23.58.13-28.16-4.99-5.46-6.12-8.35-16.89-6.58-24.52,3.08-13.23,13.96-20.82,23.1-25.95,9.24-5.19,23.97-9.39,34.25-7.38h0c7.69,1.51,16.39,7.36,17.72,19.25.91,8.08-2.53,16.25-10.22,24.3-7.52,7.88-16.86,14.16-27.01,18.16-1.06.42-2.1.79-3.1,1.12ZM667.6,483.61c-2.81.92-5.64,2.12-8.22,3.56-9.61,5.4-14.08,9.96-15.42,15.73-.6,2.56,1.01,8.18,2.96,10.37,2.21,2.48,6.79,2.36,13.61-.32,8.03-3.17,15.42-8.14,21.37-14.37,2.95-3.09,6.38-7.61,5.93-11.59-.14-1.25-.51-4.57-5.02-5.46h0c-3.27-.64-9.2.1-15.21,2.08Z"/>
    <path class="cls-1" d="M696.83,594.53c-2.16.71-4.47,1.36-6.92,1.95-6.23,1.49-15.41,2.88-23.09-2.34-11.1-7.53-11.81-23.97-5.51-34.6,7.65-12.9,24.85-19.97,34.07-20.68h0s.6-.05.6-.05c4.86-.39,16.23-1.32,24.98,5.8,5.86,4.77,7.32,14.04,6.88,19.11-1.04,11.87-10.45,19.13-14.97,22.62-4.43,3.42-9.62,6.08-16.02,8.18ZM691.88,555.74c-5.74,1.88-13.5,6.11-16.93,11.89-2.69,4.54-2.3,11.3.78,13.39,1.87,1.27,5.3,1.28,10.49.04,7.47-1.79,12.86-4.1,16.96-7.26,5.06-3.9,8.5-7.35,8.86-11.45.15-1.76-.57-4.62-1.23-5.54-3.83-2.97-10.38-2.44-13.54-2.18l-.66.05c-1.21.09-2.86.46-4.71,1.07Z"/>
    <path class="cls-1" d="M1404.21,988.87c-.62,0-1.24-.07-1.86-.2-3.95-.87-6.77-4.38-6.77-8.42v-324.9l-282.27,88.5c-3.31,1.04-6.92,0-9.16-2.66-2.24-2.65-2.68-6.38-1.11-9.47l235.93-465.73c1.8-3.56,5.81-5.42,9.7-4.49,3.88.93,6.62,4.4,6.62,8.39v306.19l273.03-93.26c3.27-1.12,6.89-.18,9.2,2.39,2.31,2.57,2.87,6.27,1.41,9.4l-226.9,489.28c-1.43,3.09-4.52,5-7.82,5ZM1404.21,634.97c1.81,0,3.61.57,5.11,1.67,2.21,1.62,3.52,4.21,3.52,6.95v297.54l201.96-435.48-265.34,90.63c-2.64.9-5.54.47-7.81-1.15-2.26-1.62-3.61-4.23-3.61-7.02v-282.13l-210.37,415.26,273.95-85.89c.85-.27,1.72-.4,2.58-.4Z"/>
  </g>
</svg>