<?xml version="1.0" encoding="UTF-8"?>
<svg id="Layer_2" data-name="Layer 2" xmlns="http://www.w3.org/2000/svg" viewBox="0 0 1830 1174">
  <defs>
    <style>
      .cls-1 {
        fill: #442f2a;
      }
    </style>
  </defs>
  <g id="Layer_1-2" data-name="Layer 1">
    <path class="cls-1" d="M572.91,971.81c-22.04,0-40.92-5.12-56.42-15.33-18.43-12.15-33.22-30.45-41.64-51.55-8.88-22.26-9.69-45.63-2.27-65.81,12.89-35.05,32.74-72.48,90.28-108.71,19.89-12.52,42.75-17.29,64.86-21.89,18.44-3.84,35.86-7.47,51.33-15.24,69.58-34.92,121.71-85.98,146.8-143.78,5.9-13.59,10.61-28.16,15.16-42.26,4.65-14.4,9.47-29.3,15.66-43.64,20.14-46.64,55.08-86.95,98.38-113.51,25.95-15.92,65.31-28.54,97.95-16.24,42.98,16.2,86.84,79.5,87.27,80.14,8.59,12.65,29.99,61.32,46.22,116.21,14.39,48.64,28.36,115.06,13.26,155.24-12.81,34.08-23.96,56.56-70.61,81.19-31.12,16.44-66.17,29.85-100.07,42.82-7.57,2.9-14.71,5.63-21.86,8.41-43.51,16.94-80.15,27.05-115.58,36.83-48.72,13.44-94.74,26.14-148.53,55.09-20.57,11.07-96.91,48.87-123.8,55.68-16.74,4.24-32.22,6.35-46.4,6.35ZM1024.04,348.83c-20.69,0-42.49,8.47-58.54,18.31-39.83,24.42-71.96,61.49-90.47,104.39-5.81,13.47-10.48,27.9-14.99,41.86-4.7,14.55-9.56,29.6-15.85,44.07-14.23,32.78-35.97,63.18-64.61,90.34-25.87,24.53-56.67,45.84-91.56,63.35-17.81,8.93-37.34,13-56.22,16.94-21.31,4.44-41.44,8.63-58.28,19.24-49.55,31.2-68.68,62.02-82.16,98.69-11.61,31.57,4.27,72.75,36.15,93.75,20.58,13.56,49.82,15.68,86.9,6.29,22.44-5.68,93.83-40.23,119.23-53.9,55.77-30.02,102.85-43.01,152.69-56.76,34.95-9.64,71.08-19.61,113.64-36.18,7.2-2.8,14.71-5.68,21.97-8.46,33.34-12.76,67.82-25.95,97.88-41.82,39.21-20.71,48.76-37.4,61.23-70.55,10.26-27.3,5.39-77.91-13.72-142.52-15.97-54.01-36.87-100.74-43.59-110.65-12.9-19-48.88-61.76-77.78-72.66h0c-6.93-2.61-14.34-3.74-21.91-3.74Z"/>
    <path class="cls-1" d="M1131.75,334.36c-2.08,0-4.17-.08-6.28-.24-14.38-1.1-31.64-8.13-36.99-24.58-4.01-12.33,5.45-33.14,8.44-39.22,14.04-28.54,45.82-57.66,92.8-53.79h0c15.15,1.25,26,6.69,32.24,16.18,8.32,12.65,4.51,26.85,3.15,30.9-4.09,12.12-11.38,24.51-19.51,33.13-23.82,25.27-48.04,37.62-73.84,37.62ZM1181.54,236.19c-33.42,0-56.2,21.68-66.67,42.96-4.95,10.06-8.01,21.32-7.34,24.29,2.12,6.52,11.31,10.11,19.47,10.73,22.06,1.69,42.42-8.22,64.05-31.16,6.16-6.53,11.95-16.42,15.11-25.8,1.25-3.7,1.76-9.47-.91-13.52-3.34-5.08-11.18-6.74-17.17-7.23-2.22-.18-4.4-.27-6.54-.27Z"/>
    <path class="cls-1" d="M1205.75,419.08c-.84,0-1.69-.02-2.53-.06-11.31-.56-28.39-1.42-36.97-23.39-8.82-22.61,1.49-50.94,23.99-65.9,18.1-12.03,39.64-17.5,57.63-14.63h0c16.96,2.71,28.11,9.23,33.12,19.38,5.15,10.44,9.23,32.22-21.36,60.82-11.95,11.17-32.96,23.79-53.88,23.79ZM1238.28,334.36c-10.06,0-23.58,3.12-36.97,12.02-12.8,8.51-22.45,26.54-16.43,41.97,3.57,9.15,7.65,10.1,19.33,10.69,14.41.72,31.75-9.02,41.75-18.36,9.08-8.49,23.37-24.62,17.08-37.35-1.89-3.83-8.57-6.92-18.33-8.48-1.92-.31-4.09-.48-6.44-.48Z"/>
    <path class="cls-1" d="M1243.82,505.55c-15.39,0-33.73-5.64-40.41-22.03-4.32-10.61-2.3-23.6,5.28-33.9,5.42-7.36,13.37-13.35,24.32-18.29,19.35-8.74,32.82-11.84,46.5-10.71h0c9.38.77,19.14,2.31,26.91,8.31,8.28,6.39,11.99,18.05,9.47,29.72-1.75,8.1-6.39,15.9-13.78,23.2-13.84,13.67-32.96,22.03-53.84,23.54-1.45.1-2.94.16-4.46.16ZM1274.3,440.4c-9.02,0-18.94,2.78-33.06,9.16-7.73,3.49-13.11,7.39-16.44,11.91-3.38,4.59-4.53,10.42-2.87,14.5,3.07,7.53,15.06,10.18,24.9,9.47,15.9-1.15,30.92-7.65,41.23-17.83,4.58-4.52,7.36-8.96,8.28-13.19.85-3.91-.08-8.07-2.14-9.66-3.67-2.83-10.31-3.72-16.33-4.21-1.18-.1-2.37-.15-3.57-.15Z"/>
    <path class="cls-1" d="M1258.73,592.58c-19.98,0-28.31-9.12-31.78-17.06-4.14-9.49-3.36-23.53,1.77-31.98,8.9-14.64,24.93-19.46,37.9-22.01,13.12-2.59,32.42-1.82,43.95,4.64h0c8.63,4.84,16.75,15.27,13.67,30.05-2.09,10.04-9.43,18.48-21.81,25.11-12.11,6.48-25.78,10.33-39.53,11.14-1.44.08-2.83.13-4.16.13ZM1281.74,540.11c-3.74,0-7.59.32-11.25,1.04-13.64,2.69-20.79,6.39-24.68,12.78-1.72,2.83-2.01,10.2-.53,13.59,1.68,3.84,7.21,5.5,16.44,4.97,10.87-.64,21.68-3.68,31.26-8.81,4.75-2.54,10.64-6.61,11.67-11.55.32-1.55,1.18-5.68-3.87-8.52h0c-3.66-2.05-11.07-3.5-19.05-3.5Z"/>
    <path class="cls-1" d="M1273.12,684.55c-2.87,0-5.89-.13-9.07-.39-8.06-.66-19.6-2.61-26.75-11.89-10.33-13.4-4.72-33.38,7.01-43.63,14.25-12.46,37.64-14.15,48.97-11.37h0s.73.18.73.18c5.98,1.44,19.97,4.81,27.65,16.78,5.15,8.02,3.25,19.71.72,25.61-5.92,13.82-20.05,18.81-26.84,21.22-6.66,2.35-13.93,3.5-22.42,3.5ZM1282.44,636.11c-7.62,0-18.59,2-24.97,7.58-5.02,4.38-7.21,12.64-4.34,16.36,1.74,2.26,5.85,3.62,12.55,4.17,9.65.79,17.02.15,23.18-2.03,7.6-2.69,13.08-5.46,15.13-10.24.88-2.05,1.13-5.77.7-7.12-3.42-5.07-11.47-7.01-15.37-7.95l-.81-.2c-1.49-.37-3.61-.58-6.07-.58Z"/>
    <path class="cls-1" d="M1444.67,388.33c-4.59,0-9-2.53-11.19-6.91-3.09-6.17-.58-13.68,5.59-16.77l119.79-59.89c6.17-3.09,13.68-.58,16.77,5.59,3.09,6.17.58,13.68-5.59,16.77l-119.79,59.89c-1.79.9-3.7,1.32-5.58,1.32Z"/>
    <path class="cls-1" d="M1682.96,275.72l-54.63,107.41c-8.45,16.61-32.13,16.73-40.74.21l-64.06-122.81c-8.72-16.71,4.83-36.37,23.55-34.17l116.79,13.7c17.04,2,26.88,20.36,19.1,35.66Z"/>
    <path class="cls-1" d="M132.66,1022.33c-4.59,0-9-2.53-11.19-6.91-3.09-6.17-.58-13.68,5.59-16.77l119.79-59.89c6.17-3.08,13.68-.58,16.77,5.59,3.09,6.17.58,13.68-5.59,16.77l-119.79,59.89c-1.79.9-3.7,1.32-5.58,1.32Z"/>
    <path class="cls-1" d="M370.96,909.72l-54.63,107.41c-8.45,16.61-32.13,16.73-40.74.21l-64.06-122.81c-8.72-16.71,4.83-36.37,23.55-34.17l116.79,13.7c17.04,2,26.88,20.36,19.1,35.66Z"/>
    <path class="cls-1" d="M1795,1174H35c-19.3,0-35-15.7-35-35V35C0,15.7,15.7,0,35,0h1760c19.3,0,35,15.7,35,35v1104c0,19.3-15.7,35-35,35ZM35,30c-2.76,0-5,2.24-5,5v1104c0,2.76,2.24,5,5,5h1760c2.76,0,5-2.24,5-5V35c0-2.76-2.24-5-5-5H35Z"/>
    <rect class="cls-1" x="20.89" y="127" width="1794.11" height="30"/>
  </g>
</svg>