<?xml version="1.0" encoding="UTF-8"?>
<svg id="Layer_2" data-name="Layer 2" xmlns="http://www.w3.org/2000/svg" viewBox="0 0 1774.42 1774.42">
  <defs>
    <style>
      .cls-1 {
        fill: #442f2a;
      }

      .cls-2 {
        fill: #f6ece3;
      }
    </style>
  </defs>
  <g id="Layer_2-2" data-name="Layer 2">
    <circle class="cls-2" cx="887.21" cy="887.21" r="887.21"/>
    <path class="cls-1" d="M460.88,731.25c-7.39,0-14.61-2.74-20.18-7.8l-89.8-81.61c-12.26-11.14-13.17-30.12-2.02-42.38,11.14-12.26,30.12-13.17,42.38-2.02l63.18,57.42c47.69-66.93,143.45-159.41,182.1-185.51,13.73-9.27,32.38-5.66,41.65,8.07,9.27,13.73,5.66,32.38-8.07,41.65-43.73,29.53-157.78,145.58-182.32,195.43-4.16,8.46-12.06,14.46-21.31,16.22-1.86.35-3.74.53-5.6.53Z"/>
    <path class="cls-1" d="M467.33,1020.73c-7.39,0-14.61-2.74-20.18-7.8l-89.8-81.61c-12.26-11.14-13.17-30.12-2.02-42.38s30.12-13.17,42.38-2.02l63.18,57.42c47.69-66.93,143.45-159.41,182.1-185.51,13.73-9.27,32.38-5.66,41.65,8.07,9.27,13.73,5.66,32.38-8.07,41.65-43.73,29.53-157.78,145.58-182.32,195.43-4.16,8.46-12.06,14.46-21.31,16.22-1.86.35-3.74.53-5.6.53Z"/>
    <path class="cls-1" d="M467.33,1310.22c-7.39,0-14.61-2.74-20.18-7.8l-89.8-81.61c-12.26-11.14-13.17-30.12-2.02-42.38,11.14-12.26,30.12-13.17,42.38-2.02l63.18,57.42c47.69-66.93,143.45-159.41,182.1-185.51,13.73-9.27,32.38-5.66,41.65,8.08,9.27,13.73,5.66,32.38-8.07,41.65-43.73,29.53-157.78,145.58-182.32,195.43-4.16,8.46-12.06,14.46-21.31,16.22-1.86.35-3.74.53-5.6.53Z"/>
    <path class="cls-1" d="M1396.9,627.73h-519.36c-16.57,0-30-13.43-30-30s13.43-30,30-30h519.36c16.57,0,30,13.43,30,30s-13.43,30-30,30Z"/>
    <path class="cls-1" d="M1403.35,917.21h-519.36c-16.57,0-30-13.43-30-30s13.43-30,30-30h519.36c16.57,0,30,13.43,30,30s-13.43,30-30,30Z"/>
    <path class="cls-1" d="M1396.9,1206.7h-519.36c-16.57,0-30-13.43-30-30s13.43-30,30-30h519.36c16.57,0,30,13.43,30,30s-13.43,30-30,30Z"/>
  </g>
</svg>