<?xml version="1.0" encoding="UTF-8"?>
<svg id="Layer_2" data-name="Layer 2" xmlns="http://www.w3.org/2000/svg" viewBox="0 0 1625.81 1637.28">
  <defs>
    <style>
      .cls-1 {
        fill: #f6ece3;
      }
    </style>
  </defs>
  <g id="Layer_1-2" data-name="Layer 1">
    <path class="cls-1" d="M760.41,1420.98c.61-4.92,1.19-9.84,1.77-14.77.12-2.04.28-4.07.47-6.11H33.01c-4.42,0-8.01-3.6-8.01-8.01V33.01c0-4.42,3.6-8.01,8.01-8.01h1358.67c4.64,0,8.42,3.78,8.42,8.42v731.83c8.27-1.02,16.63-.63,25-.48V33.42c0-18.46-14.96-33.42-33.42-33.42H33.01C14.78,0,0,14.78,0,33.01v1359.07c0,18.23,14.78,33.01,33.01,33.01h727.71c-.35-1.42-.48-2.83-.32-4.12Z"/>
    <path class="cls-1" d="M1593.87,781.99c3.83,0,6.94,3.12,6.94,6.94v816.4c0,3.83-3.12,6.94-6.94,6.94h-816.4c-3.83,0-6.94-3.12-6.94-6.94v-816.4c0-3.83,3.12-6.94,6.94-6.94h816.4M1593.87,756.99h-816.4c-17.64,0-31.94,14.3-31.94,31.94v816.4c0,17.64,14.3,31.94,31.94,31.94h816.4c17.64,0,31.94-14.3,31.94-31.94v-816.4c0-17.64-14.3-31.94-31.94-31.94h0Z"/>
    <path class="cls-1" d="M522.54,538.92c-3.2,0-6.4-1.22-8.84-3.66L226.43,248c-4.88-4.88-4.88-12.8,0-17.68s12.8-4.88,17.68,0l287.27,287.27c4.88,4.88,4.88,12.8,0,17.68-2.44,2.44-5.64,3.66-8.84,3.66Z"/>
    <path class="cls-1" d="M530.8,548.6l-110.73-15.8c-17.12-2.44-24.32-23.21-12.4-35.73l88.68-93.08c12.07-12.67,33.4-6.66,37.08,10.45l22.96,106.7c3.35,15.57-9.83,29.71-25.6,27.46Z"/>
  </g>
</svg>