<?xml version="1.0" encoding="UTF-8"?>
<svg id="Layer_2" data-name="Layer 2" xmlns="http://www.w3.org/2000/svg" viewBox="0 0 1888.01 827.44">
  <defs>
    <style>
      .cls-1 {
        fill: #91766d;
      }
    </style>
  </defs>
  <g id="Layer_2-2" data-name="Layer 2">
    <path class="cls-1" d="M1776.74,827.44c-25.15-14.44-52.87-24.02-78.06-38.76-12.68-7.43-29.72-16.3-46.4-17.81-17.94-1.63-35.7-8.88-52.34-13.29-30.71-8.13-62.62-16.01-86.86-35.71-2.05-1.67-2.6-4.58-1.32-6.89,6.95-12.64,23.67-18.03,38.57-19.37,30.38-2.74,60.69,3.96,90.83,8.61,30.14,4.64,46.54-1.31,80.39-4.63,6.9-.68,23.23-4.6,30.04-3.35,3.54.65,6.74,2.45,10.09,3.74,9.22,3.53,19.62,3.21,28.68,7.13,11.64,5.04,19.23,16.17,27.01,26.19,18.66,24.03,41.92,44.46,68.11,59.93,1.78,1.05,3.5-1.46,1.88-2.74-21.84-17.23-45.71-37.26-56.84-60.26-4.33-8.94-13.77-22.54-23.83-29.05-16.76-10.85-35.2-12.65-34.47-18.52.47-3.78,38.21-11.12,64.98-21.79,1.89-.75.97-3.6-1.01-3.12l-60.85,14.97c-17.95,4.42-34.96,13.84-53.3,16.17-20.14,2.56-36.02,1.08-56.31.34-5.45-.2-22.58.52-27.32-2.04-20.69-11.2-43.24-6.86-63.43-14.16-23.96-8.65-52.67-5.23-73.77,9.04-7.38,4.98-14.01,11.58-22.2,15.51-2.92,1.39-6.25,1.69-9.4.95-8.56-2.02-16.94-4.83-24.98-8.39-9.31-4.13-18.15-9.25-26.93-14.42-14.93-8.8-30.83-22.99-49.11-28-11.47-3.15-30.38-15.37-39.28-24.26-5.15-5.15-20.22-5.11-24.89-11.22-11.73-15.36-49.96-34.22-74.18-52.45-13.3-11.5-27.58-24.01-39.49-37.45-7.81-8.81-12.87-18.59-21.96-26.76-1.83-1.64-1.21-4.65,1.1-5.53,19.3-7.34,47.22-13.56,71.5-11.25,24.28,2.32,44.92,13.17,53.68,19.97,15.71,12.18,40.87,29.55,72.21,40.96,9.14,3.33,26.73,14.4,35.65,18.27,18.79,8.14,33.26,23.51,49.93,35.45,1.65,1.18,3.66-.94,2.36-2.51-22.67-27.53-51.62-49.88-84.03-64.76-10.91-5.01-22.44-9.34-32.61-18.52,25.22-1.5,50.1,9,75.27,6.87,7.96-.67,15.73-2.59,23.41-4.88,1.5-.45,1.15-2.68-.43-2.64-36.23.83-72.76-5.75-107.99-19.67-18.5-8.39-39.26-16.08-58.2-23.56-14.68-5.8-38.5-7.54-58.61-4.68-11.71,1.67-23.09,5.26-34.81,6.79-7.83,1.02-11.69,4.38-19.36,4.08-3.93-.15-7.75-1.3-11.2-3.17-24-13.02-50.17-35.62-73.18-49-14.83-8.63-30.77-11.64-46.52-17.99-24.63-9.94-43.14-14.26-66.96-11.09-26.11,3.48-79.25-1.94-96.98-3.94-2.46-.27-3.55-3.23-1.87-5.05l22.65-24.48c3.23-3.49,6.99-6.43,11.11-8.79,8.19-4.71,17.72-13.68,25.21-14.99,9.64-1.69,23.54-5.73,31.95-9.27,14.65-6.17,84.7-8.84,115.47-8.93,2.03-.01,2.22-2.98.21-3.25-26.38-3.56-76.98-4.87-103.59-4.93-16.09-.03-31.93,2.68-47.89,4.63-15.91,1.94-35.51,12.35-47.27,23.14-20.05,18.4-46.4,29.09-64.92,46.14-7.06,6.5-15.75,10.98-25.1,13.15-15.49,3.61-28.8,5.08-44.86,11.84-15.56,6.56-35.42,2.46-52.23,4.07-8.2.79-17.32,1.18-27.99-2.23-27.25-11.37-58.11-15.99-82.26-33.04-16.32-11.53-38.86-15.54-71.65-26.27-15.52-5.07-38.59-13.3-55.74-14.3-27.2-1.58-70.34-18.67-80.64-21.96-12.73-4.06-29.01-4.96-75.61-19.82-25.48-8.13-54.32-15.76-80.78-14.89-13.43.44-24.88-1.74-38.34-2.41-13.74-.69-29.47,3.64-43.09,2.59-32.05-2.49-63.4-7.42-93.44-17.83-5.22-1.81-5.21-9.21.03-10.98,14.66-4.93,28.95-11.51,43.31-17.85,7.65-3.37,13.32-2.68,21.09-5.64,9.54-3.63,21.23-10.73,31.17-12.75,35.4-7.22,72.13-2.74,107.61,4.13,13.83,2.67,28.8,2.41,41.29,8.93,17.03,8.89,34.49,11.63,52.18,12.91,9.86.71,19.17,4.85,28.77,7.21,28.18,6.93,57.64,8.54,85.14,17.82,15.69,5.29,35.68,6.54,53.16,5.58,53.51-2.96,107.4-4.24,154.72-28.49-33.82,13.71-81.66,19.32-121.14,18.7-28.32-.45-52.34-6.06-63.8-5.18-12.1.93-25.02-4.58-37.33-7.41-19.57-4.5-39.87-7.25-58.22-15.41-17.87-7.95-31.75-10.01-46.36-12.34-36.14-5.75-70.94-23.55-106.58-31.72-1.85-.42-1.96-3-.15-3.59,36.71-11.97,76.76-9.01,115.58-10,36.48-.93,75.59-6.85,103.67-29.08,1.22-.96-.03-2.84-1.38-2.08-35.79,20.08-79.04,26.69-119.17,18.04-2.34-.51-6.77-5.14-4.67-6.28,11.37-6.17,23.06-20.23,35.68-21.52,8.89-.9,20.99-6.38,30.98-6.58.77-.02.81-1.15.04-1.22-14.41-1.3-37.79-2-50.19,5.22-10.12,5.89-18.63,14.28-28.85,20.01-10.58,5.94-25.12,13.98-38.42,11.46-15.06-2.85-23.21,1.79-30.55,4.25-14.18,4.77-31.85,4.32-43.39,12.62-3.29,2.37-7.26,3.59-11.31,3.72-19.16.57-41.32,5.05-59.64,5.05s-29.36,7.17-46.46,11.5c-10.76,2.72-27.12,7.68-41.89,19.8-7.44,6.11-18.55,9.26-27.27,13.34v99.66c23.81,18.46,47.62,36.94,71.43,55.4,13.58,10.53,27.31,21.22,37.83,34.81,13.14,16.99,14.27,38.99,23.6,58.35,7.82,16.21,3.31,42.09.56,59.52-2.26,14.34-.02,36.56-6.2,50.08-9.04,19.79-9.25,42.54-15.8,63.28-5.49,17.41-9.49,37.64-21.86,50.01-12.39,12.39-26.13,25.11-32.16,41.56-9.32,25.47-9.7,42.75-48.2,84.7h30.29c7.74-24.29,17.8-47.83,30-70.21,5.93-10.87,12.56-21.7,22.48-29.22.96-.73,2.15-1.15,3.36-1.1,4.36.2,3.61,5.39,4.29,9.16,2.25,12.36-2.55,35.16-7.04,44.75-6.77,14.46-10.12,31.25-10.52,46.62h30.6c-2.06-15.06-8.66-35.87-1.17-47.73,4.75-7.52,9.68-49.29,16.98-60.84,7.05-11.17,8.77-25.25,9.64-38.43.79-11.9,6.08-24.19,9.11-36.28,2.11-8.4,1.1-26.01,16.34-16.05,1.07.7,2.34,1.06,3.35,1.84,9.79,7.54,25.76,22.61,24.8,33.58-1.49,17.13,9.71,40.25,2.72,58.5-7.44,19.42-9.41,41.03-7.65,58.86,1.5,15.14-7.26,31.71-13.16,46.55h13.89c1.09-.69,2.26-1.46,3.51-2.33-1.66-2.45-1.1-5.72-.47-8.61,5.04-23.25,10.09-46.51,15.14-69.76,2.8-12.91,3.52-33.87,8.2-46.32,4.63-12.31,1.18-29.77-4.35-47.32-6.54-20.73-20.79-38.89-40.06-51.01-3.77-2.37-5.3-7.99-5.43-11.07-.45-10.5-4.35-31.97,1.34-40.81,4.33-6.75,7.68-46.13,7.68-46.13.52-5.05,1.12-10.36,7.54-13.13,4.53-1.95,9.79-1.42,13.97,1.21,7.76,4.9,15.6,14.92,13.04,22.55-5.12,15.25.31,32.49-.72,48.6-.79,12.37-1.5,24.74-.41,37.03.96,10.89,3.31,21.56,6.45,32.03,3.13,10.48,7.05,20.77,11.14,30.9,7.94,19.71,16.76,39.39,30.15,55.88,10.81,13.33,25.02,24.51,40.77,27.71,2.38.48,3.49-2.83,1.33-3.94-15.05-7.7-25.11-16.2-35.29-31.5-13.08-19.65-26.75-50.61-32.37-73.53-3.57-14.59-2.44-31.87-1.8-47.47.14-3.37,3.49-5.66,6.67-4.56,30.31,10.47,63.41,45.05,77.69,90.87.48,1.53,2.75.99,2.52-.59-3.31-22.39-31.31-81.67-52.17-91.94-8.59-4.23-18.56-18.57-30.4-18.57-10.24,0-5.77-28.58-8.15-35.01-3.79-10.28,3.69-41.28-5.51-51.35-4.89-5.34-7.31-13.84-15.92-18.38-6.91-3.63-20.69-3.5-29.5-2.64-3.67.36-3.46-7.73-3.98-11.39-4.97-34.72-18.67-68.18-39.55-96.37-1.89-2.55-3.95-5.35-2.24-8.92.57-1.21,1.51-2.22,2.63-2.95,3.73-2.4,8.52-1.75,11.26-1.22,20.43-.5,41.51-4.36,61.28.8,18.37,4.79,27.18.84,42.23-.54,19.6-1.81,50.68,5.57,65.22,16.67,18.85,14.39,41.13,25.24,58.87,37.9,25.26,18.03,39.07,60.99,34.31,74.19-3.79,10.52,7.19,73.6,3.7,100.08-5.34,40.61-33.03,82.03-33.03,113.81,0,9.47-22.95,58.24-35.33,70.62-14.8,14.79-7.98,50.34-5.15,76.51h24.08c.28-.07.54-.19.79-.35.85-.56,2.16-1.63,1.65-2.51-20.25-35.3,19.43-76.33,23.71-93.93,7.73-31.75,37.02-81.46,46.27-84.81,8.96-3.23,27.07,37.91,24.5,60.88-2.56,22.96-12.99,44.17-21.39,65.69-6.86,17.55-12.47,36.48-11.29,55.03h4.17c5.1-21.97,15.54-42.6,25.38-63.05,11.68-24.28,23.32-49.77,23.32-76.72,0-12.53-12.29-37.17-15.9-40.78-7.87-7.87-15.75-16.4-18.96-25.92-2.48-7.32-2.05-48.18,8.35-59.29,5.15-5.49,8.32-34.9,11.7-48.85,1.1-4.51,2.37-9.26,5.69-12.51,3.32-3.24,9.37-4.16,10.79-1.28,4.72,11.93,10.12,28.04,8.2,37.29-2.61,12.59-3.12,26.24,3.4,38.51,10.39,19.52,14.77,65.87,12.53,99.21-1.14,17.05-3.26,42.8-11.11,49.91-9.89,8.97-28.86,70-49.8,103.48h28.25c.17-.48.3-.97.42-1.44,5.08-19.17,12.63-37.69,22.41-54.95,1.14-2.02,4.11-1.89,5.07.23,7.99,17.76,13.15,36.79,15.24,56.16h11.68c.07-.96-.11-1.96-.31-2.91-4.52-22.63-10.54-59.31-15.46-69.19-4.67-9.38.47-19.87,1.6-30.29,1.54-14.35,5.38-47.6,11.59-60.62,5.69-11.92,4.39-37.11.04-64.98-1.06-6.79-2.18-13.94.21-20.38,2.39-6.45,9.67-11.64,14.94-9.07,11.07,5.34,25.87,17.34,28.05,22.59,4.96,11.94,14.78,30.15,25.99,34.87,7.93,3.34,42.65,50.9,58.84,73,3.04,4.15,39.48,36.92,53.2,44.04,9.1,4.72,51.75,25.99,77.76,45.33,8.42,6.26,18.32,10.65,27.12,15.67,14.06,8.03,27.13,15.3,37.4,20.62.85.44,1.71.89,2.57,1.32h51.26c-7.62-2.76-15.23-5.62-22.25-9.61-25.45-14.45-29.02-16.29-45.7-21.2-15.16-4.46-65.12-32.07-72.25-40.34-5.62-6.52-10.43-10.25-17.14-12.59-12.93-4.51-31.37-27.27-46.37-41.67-9.27-8.9-18.72-18.03-24.01-29.88-.63-1.41-1.08-2.91-1.17-4.45-.73-11.9,13.68-12.66,21.3-11.26,29.95,5.51,58.98.82,88.12,9.68,10.22,3.11,20.09,7.32,30.41,10.06,12.28,3.27,25.67,4.7,35.69,12.51,7.04,5.49,11.54,13.5,16.97,20.59,14.11,18.43,34.55,30.68,52.77,45.05,16.3,12.85,31.79,29.08,36.91,48.84.3,1.18,2.05.96,2.02-.26-.34-13.48-8.75-26.42-17.82-36.99-9.44-11.02-19.98-21.1-31.39-30.06-11.73-9.21-25.15-18.27-30.8-33.84-.59-1.65,1.12-3.19,2.7-2.45l25.12,11.87c24.48,11.56,52.27,17.22,78.83,22.49,33.7,6.69,67.42,7.93,99.71,18.5,1.26.41,2.04-1.32.91-1.99-15.34-9.09-29.76-13.69-48.16-19.03-14.63-4.25-35.67-6.41-50.38-10.36-18.8-5.05-35.99-17.18-53.73-25.22-23.8-10.79-57.78-29.11-67.72-39.04-11.57-11.57-31.53-20.32-47.92-29.23-14.47-7.86-32.41-7.61-46.94-15.37-11.07-5.91-25.41-6.5-38.27-9.02-17.98-3.52-44.77-7.94-56.49-22.87-11.42-14.56-50.61-41.25-76.3-65.87-12.39-11.87-24.19-24.47-33.81-38.67-2.01-2.96-3.98-6.15-4.27-9.72-.28-3.57,1.69-7.58,4.94-8.77,7.28-2.39,15.18-.38,22.57,1.63,12.19,3.32,24.66,10.59,37.06,12.96,9.72,1.86,28.39,4.87,42.83,8.81,6.39,1.74,14.75,1.43,18.58,6.83,6.19,8.71,20.45,18.44,26.45,28.37,8.24,13.63,40.57,33.11,56.34,38.02,33.58,10.47,71.39,27.1,98.92,50.11.81.68,1.86-.46,1.13-1.22-11.28-11.66-24.03-21.93-36.83-31.95-7.28-5.7-14.64-11.37-22.69-15.92-14.54-8.2-30.93-12.52-46.01-19.68-12.94-6.13-25.54-15.17-30.48-28.68-.27-.74-.39-1.55-.24-2.32.67-3.59,5.35-3.23,8.51-2.1,21.22,7.58,40.4,19.78,60.17,30.59,19.76,10.82,40.82,20.46,63.72,22.48,14.03,4.15,28.04,8.51,41.3,14.69,11.36,5.29,22.06,11.88,32.68,18.54,20.38,12.79,42.65,23.24,60.54,39.4,6.93,6.26,15.81,13.67,24.95,17.09,19.23,7.22,45.91,32.61,68.53,49.71,15.72,13.43,33.13,24.88,51.7,33.97,14.84,7.27,30.65,13.2,43.34,23.8,9.27,7.75,16.44,17.66,23.51,27.45,11.45,15.87,22.9,31.73,34.34,47.59h49.48c-1.88-4.38-3.76-8.77-5.64-13.15-1.32-3.07-2.67-6.31-2.31-9.64.36-3.32,3.08-6.65,7.2-7.24,24.21,5.75,47.4,15.82,68.13,29.57.23.15.46.3.69.46h84.68c-1.34-1.03-2.72-2.02-4.09-3.01-50.42-36.29-106.23-65.06-165.4-85.04-22.35-11.52-44.7-23.04-67.05-34.55-18.17-9.37-36.38-18.75-53.62-29.73-16.44-10.47-31.93-22.34-47.39-34.19-22.67-17.38-45.41-34.82-65.77-54.86-10.77-10.6-21.42-22.28-38.77-29.61-13.73-10.37-25.07-25.42-41.39-30.89-7.34-2.46-28.73-20.56-43.5-30.2-11.12-7.26-1.03-7.24-33.99-20.79-8.64-3.55-16.37-9.01-24.6-13.41-.11-.06-.23-.13-.34-.2-2.71-1.89-1.61-6.19,1.63-6.81,18.91-3.64,38.1-6.86,57.34-5.81,24.1,1.32,49.86,4.51,73.85,2.85,10.17-.71,21.63-1.31,30.29,4.08,21.51,13.4,38.21,18.96,52.4,25.7,17.88,8.49,30.2,26.28,43.54,40.86,26.68,29.18,53.49,58.54,87,79.75,15.89,10.06,33.23,18.3,47.26,30.7,19.6,17.3,61.97,33.58,89.62,55.04,10.11,7.85,22.61,11.69,34.06,16.74,37.97,16.75,77.41,30.01,117.11,42.1,11.93,3.63,24.24,7.25,34.05,14.96,6.68,5.25,11.85,12.14,16.94,18.95l34.32,45.9c.37.49.74.98,1.13,1.47h27.61c-1.96-3.9-4.15-7.68-6.56-11.33-4.17-6.3-9.19-12.77-9.2-20.34-.01-7.56,8.6-15.16,13.9-11.6,53.1,9.49,105.11,28.47,156.07,43.27h17.36Z"/>
    <path class="cls-1" d="M769.83,135.21c-30.42,8.11-61.16,16.13-92.39,19.26-7.69.78-16.87,4.84-28.17,2.36-30.45-6.69-54.82-7.04-84.29-10.24-6.94-.75-22.96-6.64-29.15-9.96-25.09-13.44-67.35-31.75-88.74-33.63-24.52-2.15-44.9-8.35-67.19-17.13-19.55-7.7-43.88-6.91-64.42-11.35-29.89-6.47-53.85-4.43-82.09,4.04-17.55,5.26-36.02,6.79-53.56,12.05-16.58,4.97-33.37,10.21-49.5,17.14-14.31,6.15-26.52,14.52-42.81,14.52-29.76,0-58.04,15.56-87.52,13.77v-31.04c10.37,3.62,22.88,1.9,33.56-.05,18.68-3.4,37.07-8.22,55-14.47,20.48-7.14,42.89-7.43,61.44-18.74,13.11-7.99,29.41-8.8,43.57-11.57,20.45-4,37.76-12.86,58.52-14.75,20.75-1.89,41.69,4.36,62.45,2.48,18.64-1.7,69.71,6.9,103.8.13,18.3-3.64,38.85-3.74,54.69-13.62,14.66-9.15,26.14-17.03,46.85-22.07,16.94-4.12,33.55-11.16,50.95-12.06,14.66-.76,30.24-.37,42.9,6.26,13.35,7.01,33.15,14.24,45.52,27.5.75.81-.27,2.03-1.2,1.45-17.77-11.02-41-20.01-62.09-20.98-12.05-.56-22.21,1.36-34.01,3.57-19.83,3.72-40.42,7.73-56.42,22.16-11.08,10-26.36,14.18-38.91,22.21-1.37.88-2.91,2.06-2.24,3.93.25.69.77,1.26,1.38,1.69,21.99,15.47,42.56,25.62,67.2,36.32,18.91,8.21,39.75,25.26,60.37,25.26,10.31,0,24.91,1.67,30.28,4.64,21.61,11.94,97.96,9.63,146.22.92Z"/>
  </g>
</svg>