<?xml version="1.0" encoding="UTF-8"?>
<svg id="Layer_2" data-name="Layer 2" xmlns="http://www.w3.org/2000/svg" viewBox="0 0 1634 1389.81">
  <defs>
    <style>
      .cls-1 {
        fill: #442f2a;
      }
    </style>
  </defs>
  <g id="Layer_1-2" data-name="Layer 1">
    <path class="cls-1" d="M1352.35,708.27H284.6c-13.51,0-24.5-10.99-24.5-24.5v-198.77c0-13.51,10.99-24.5,24.5-24.5h1067.75c13.51,0,24.5,10.99,24.5,24.5v198.77c0,13.51-10.99,24.5-24.5,24.5ZM285.1,683.27h1066.75v-197.77H285.1v197.77Z"/>
    <path class="cls-1" d="M1352.35,967.39H284.6c-13.51,0-24.5-10.99-24.5-24.5v-198.77c0-13.51,10.99-24.5,24.5-24.5h1067.75c13.51,0,24.5,10.99,24.5,24.5v198.77c0,13.51-10.99,24.5-24.5,24.5ZM285.1,942.39h1066.75v-197.77H285.1v197.77Z"/>
    <path class="cls-1" d="M1352.35,1226.5H284.6c-13.51,0-24.5-10.99-24.5-24.5v-198.77c0-13.51,10.99-24.5,24.5-24.5h1067.75c13.51,0,24.5,10.99,24.5,24.5v198.77c0,13.51-10.99,24.5-24.5,24.5ZM285.1,1201.5h1066.75v-197.77H285.1v197.77Z"/>
    <rect class="cls-1" x="805.98" y="1214" width="25" height="157.47"/>
    <rect class="cls-1" x="805.98" y="955.54" width="25" height="35.68"/>
    <rect class="cls-1" x="805.98" y="696.43" width="25" height="35.68"/>
    <path class="cls-1" d="M1282.32,1389.81H354.63c-6.9,0-12.5-5.6-12.5-12.5s5.6-12.5,12.5-12.5h927.69c6.9,0,12.5,5.6,12.5,12.5s-5.6,12.5-12.5,12.5Z"/>
    <path class="cls-1" d="M255.48,843.5c-102.3,0-181.75-43.98-224.57-124.68C7.78,675.21-2.95,622.13.7,569.34c3.61-52.25,21.11-102.37,49.26-141.13,22.91-31.55,51.66-54.74,85.43-68.92,32.87-13.8,69.23-18.4,108.24-13.73.07-1.24.15-2.57.24-3.98.67-9.96,2.17-25.67,5.54-43.89,5.9-31.92,18.64-76.88,45.86-109.82,23.62-28.59,54.01-43.76,90.32-45.09,39.09-1.43,85.11,13.61,136.95,44.72C597.85,65.19,681.61,2.14,771.64.05c34.36-.79,69.45,7.45,104.3,24.5,27.47,13.44,54.86,32.36,81.4,56.24,31.85,28.66,54.58,57.27,65.51,72.09,17.58-11.49,55.85-34.88,103.57-54.37,38.26-15.63,74.64-25.44,108.12-29.16,42.53-4.73,80.56.39,113.02,15.21,67.11,25.77,117.44,69.6,145.56,126.76,31.34,63.72,35.17,142.14,11.43,233.27,22.7,6.36,53.78,26.2,78.1,51.15,40.05,41.09,57.58,89.57,49.38,136.5-8.76,50.11-28.2,91.57-57.78,123.25-23.74,25.42-53.89,44.46-89.62,56.61-60.13,20.45-114.91,14.26-117.21,13.99-6.86-.81-11.75-7.03-10.94-13.89.81-6.85,7.03-11.75,13.89-10.94.5.06,52.15,5.77,107.01-13.1,72.03-24.78,115.78-78.69,130.02-160.22,9.15-52.37-22.8-94.37-42.66-114.75-31.88-32.71-66.46-46.88-74.19-45.73-4.21.62-8.44-.93-11.24-4.13-2.8-3.2-3.78-7.6-2.61-11.69,65.48-228.06-58.64-313.34-138.45-343.88-.25-.1-.5-.2-.75-.32-64.77-29.75-145.14-8.8-201.16,14.02-62.07,25.29-108.9,58.46-109.36,58.79-2.76,1.97-6.21,2.73-9.55,2.11-3.34-.62-6.28-2.57-8.15-5.41-.26-.39-26.45-39.73-69.13-78.01-38.59-34.62-99.07-75.56-168.02-73.91-83.44,1.98-162.4,64.59-234.67,186.1-1.73,2.9-4.55,4.98-7.83,5.77-3.28.79-6.74.21-9.6-1.6-76.06-48.17-136.18-59.89-178.67-34.83-36.14,21.32-54.04,66.38-62.7,100.44-9.63,37.9-10.55,72.1-10.37,77.43.34,2.55-.11,5.21-1.39,7.58-2.56,4.74-7.86,7.31-13.15,6.38-75.69-13.24-140.88,11.83-183.55,70.59-52.69,72.56-59.92,183.67-17.19,264.2,39.76,74.94,115.66,114.43,213.68,111.22,6.91-.25,12.68,5.18,12.9,12.08s-5.18,12.68-12.08,12.9c-4.03.13-8.05.2-12.01.2ZM265.7,352.26s0,0,0,0c0,0,0,0,0,0ZM265.68,352.23s0,.01.01.02c0,0,0-.01-.01-.02ZM265.06,351.51c.21.23.42.47.61.71-.19-.24-.39-.47-.61-.71ZM265.04,351.49s.01.01.02.02c0,0-.01-.01-.02-.02ZM265.02,351.47s.01.01.02.02c0,0-.01-.01-.02-.02ZM265,351.44s.01.01.02.02c0,0-.01-.01-.02-.02Z"/>
    <circle class="cls-1" cx="351.98" cy="540.5" r="23.5"/>
    <circle class="cls-1" cx="354.63" cy="797.83" r="23.5"/>
    <circle class="cls-1" cx="351.98" cy="1058.83" r="23.5"/>
    <path class="cls-1" d="M1294.14,626.22h-329.33c-13.51,0-24.5-10.99-24.5-24.5v-34.67c0-13.51,10.99-24.5,24.5-24.5h329.33c13.51,0,24.5,10.99,24.5,24.5v34.67c0,13.51-10.99,24.5-24.5,24.5ZM965.31,601.22h328.33v-33.67h-328.33v33.67Z"/>
    <path class="cls-1" d="M1294.14,885.33h-329.33c-13.51,0-24.5-10.99-24.5-24.5v-34.67c0-13.51,10.99-24.5,24.5-24.5h329.33c13.51,0,24.5,10.99,24.5,24.5v34.67c0,13.51-10.99,24.5-24.5,24.5ZM965.31,860.33h328.33v-33.67h-328.33v33.67Z"/>
    <path class="cls-1" d="M1294.14,1144.45h-329.33c-13.51,0-24.5-10.99-24.5-24.5v-34.67c0-13.51,10.99-24.5,24.5-24.5h329.33c13.51,0,24.5,10.99,24.5,24.5v34.67c0,13.51-10.99,24.5-24.5,24.5ZM965.31,1119.45h328.33v-33.67h-328.33v33.67Z"/>
  </g>
</svg>