<svg width="74" height="74" viewBox="0 0 74 74" fill="none" xmlns="http://www.w3.org/2000/svg">
<path d="M54.4721 4.11108H19.5277C18.7099 4.11108 17.9257 4.43593 17.3474 5.01417C16.7692 5.59241 16.4443 6.37667 16.4443 7.19442V69.8889H57.5554V7.19442C57.5554 6.37667 57.2306 5.59241 56.6524 5.01417C56.0741 4.43593 55.2899 4.11108 54.4721 4.11108ZM53.4443 65.7778H20.5554V8.2222H53.4443V65.7778Z" fill="#442F2A"/>
<path d="M24.6665 12.7444H49.3332V16.0333H24.6665V12.7444ZM24.6665 20.9666H49.3332V24.2555H24.6665V20.9666ZM36.9998 46.8255C35.7802 46.8255 34.5879 47.1872 33.5738 47.8648C32.5597 48.5424 31.7693 49.5055 31.3026 50.6323C30.8358 51.7591 30.7137 52.999 30.9517 54.1952C31.1896 55.3914 31.7769 56.4902 32.6393 57.3527C33.5018 58.2151 34.6006 58.8024 35.7968 59.0403C36.993 59.2783 38.2329 59.1562 39.3597 58.6894C40.4865 58.2227 41.4496 57.4323 42.1272 56.4182C42.8048 55.4041 43.1665 54.2118 43.1665 52.9922C43.1665 51.3567 42.5168 49.7881 41.3603 48.6317C40.2039 47.4752 38.6353 46.8255 36.9998 46.8255ZM36.9998 56.0755C36.39 56.0755 35.7939 55.8947 35.2868 55.5559C34.7798 55.2171 34.3846 54.7355 34.1512 54.1721C33.9178 53.6087 33.8568 52.9887 33.9757 52.3906C34.0947 51.7925 34.3884 51.2431 34.8196 50.8119C35.2508 50.3807 35.8002 50.087 36.3983 49.9681C36.9964 49.8491 37.6164 49.9102 38.1798 50.1435C38.7432 50.3769 39.2247 50.7721 39.5635 51.2792C39.9023 51.7862 40.0832 52.3823 40.0832 52.9922C40.0832 53.8099 39.7583 54.5942 39.1801 55.1724C38.6018 55.7506 37.8176 56.0755 36.9998 56.0755Z" fill="#442F2A"/>
</svg>
