<?xml version="1.0" encoding="UTF-8"?>
<svg id="Layer_2" data-name="Layer 2" xmlns="http://www.w3.org/2000/svg" viewBox="0 0 1774.42 1774.42">
  <defs>
    <style>
      .cls-1 {
        fill: #442f2a;
      }

      .cls-2 {
        fill: #f6ece3;
      }
    </style>
  </defs>
  <g id="Layer_2-2" data-name="Layer 2">
    <g id="Layer_3" data-name="Layer 3">
      <circle class="cls-2" cx="887.21" cy="887.21" r="887.21"/>
    </g>
    <path class="cls-1" d="M636.58,386c143,0,284.66,67.97,373.91,179.74,77.36,96.88,120.79,191.5,137.6,314.33,6.75,49.3,3.84,129.37-10.85,176.91-9.17,29.69-25.22,56.87-43.88,81.71-40.44,53.82-93.89,97.78-154.5,127.06-87.38,42.22-172.01,66.94-268.51,77.28-15.3,1.64-31.04,2.48-46.98,2.48-57.1,0-116.6-10.86-166.15-35.02-60.69-29.58-111.4-90.47-119.43-157.51-8.04-67.03,16.36-136.34,61.3-186.72,37.92-42.51,89.02-71.96,125.29-115.88,24.78-30.01,42.33-69.55,33.76-107.51-9.57-42.35-47.69-70.8-78.88-101.01-28.56-27.66-53.87-61.6-59.02-101.02-5.15-39.42,15.5-73.56,44.39-100.52,25.29-23.6,93.67-53.35,166-54.3,1.99-.03,3.96-.04,5.95-.04M636.58,326c-2.28,0-4.48.01-6.74.04-49.99.66-92.9,12.42-120.1,22.18-35.96,12.89-66.51,30.03-86.04,48.25-21.08,19.67-37.25,40.99-48.06,63.36-13.84,28.65-18.85,58.52-14.9,88.8,3.5,26.83,13.38,53.39,29.34,78.95,12.21,19.55,27.73,38.32,47.43,57.4,5.76,5.58,11.58,10.96,17.21,16.17,21.1,19.51,41.04,37.94,44.89,54.96,3.29,14.56-4.95,36.05-21.49,56.08-15.46,18.71-35.89,35.53-57.52,53.33-22.26,18.33-45.29,37.27-66.29,60.81-27.73,31.09-49.4,68.44-62.64,108.01-13.75,41.07-18.4,84.57-13.46,125.79,5.15,42.92,23.2,85.29,52.21,122.53,26.93,34.57,61.69,62.85,100.5,81.77,28.49,13.89,60.31,24.46,94.58,31.43,31.5,6.41,64.43,9.65,97.86,9.65,17.91,0,35.87-.95,53.37-2.83,102.23-10.95,193.82-37.3,288.22-82.91,69.21-33.44,130.19-83.6,176.37-145.05,25.52-33.97,42.94-66.69,53.24-100.04,18.33-59.32,20.36-148.74,12.97-202.76-9.14-66.79-25.72-126.67-50.68-183.05-24.06-54.35-56.6-106.88-99.49-160.59-49.37-61.82-114.27-113.15-187.7-148.43-73.36-35.24-153.96-53.87-233.09-53.87h0Z"/>
    <path class="cls-1" d="M1424.98,812.86c-20.24,0-41.05-6.25-56.49-17.5-18.38-13.39-27.35-32.66-31.65-46.46-13.31-42.75-1.13-93.24,33.42-138.53,14.1-18.49,30.29-34.83,45.94-50.64,14.49-14.63,28.17-28.45,40.21-43.71,4.05-5.14,10.38-7.98,16.91-7.58,6.54.39,12.47,3.96,15.88,9.56,34.9,57.28,54.96,136.31,47.72,187.96-4,29.94-17.84,57.33-37.98,75.17-14.6,12.94-27.22,24.11-55.59,29.93-5.95,1.22-12.13,1.81-18.36,1.81ZM1468.31,563.42c-7.81,8.43-15.82,16.51-23.68,24.45-15.44,15.59-30.02,30.31-42.56,46.75-12.58,16.49-40.39,59.47-27.03,102.38,3.54,11.36,9.58,20.6,17.02,26.03,11.16,8.13,28.94,11.76,43.25,8.83,17.89-3.67,23.92-9,37.11-20.69,13.06-11.57,22.12-30,24.86-50.58,0-.05.01-.1.02-.15,5.07-36.02-7.03-91.03-28.99-137.02Z"/>
    <path class="cls-1" d="M1220.67,1494.04c-8.35,0-16.18-3.07-22.56-8.95-14.39-13.27-17.22-36.88-15.27-53.07,24.18-200.88,88.49-424.65,141.8-597.13h0c1.59-5.16,5.75-17.14,10.65-28.99,8.96-21.65,14.39-28.4,20.24-32.28,6.7-4.44,16.02-6.41,43.84-3.38,14.65,1.6,31.7,4.37,43.44,7.07,5.26,1.21,16.21,3.73,24.04,13.04,12.83,15.28,6.74,34.81,4.45,42.16-63.47,203.73-131.56,409.09-202.38,610.36-3.81,10.82-8.54,24.28-18,35.63-6.73,8.07-14.5,13.06-23.1,14.81-2.41.49-4.8.73-7.15.73ZM1377.91,808.75c-3.97,7.79-10.77,24.09-15.05,37.94h0c-52.82,170.88-116.5,392.39-140.3,590.1-.53,4.39-.2,8.68.45,12.1,3.33-5.5,5.79-12.5,8.19-19.31,70.66-200.82,138.6-405.71,201.93-608.98.55-1.77.92-3.15,1.17-4.22-.14-.03-.28-.07-.43-.1-18.09-4.16-44.24-7.37-55.95-7.54ZM1437.75,817.41s0,0,0,0c0,0,0,0,0,0Z"/>
    <circle class="cls-1" cx="628.76" cy="538.36" r="75.21"/>
    <circle class="cls-1" cx="858.69" cy="644.79" r="81.55"/>
    <circle class="cls-1" cx="706.29" cy="904.06" r="78.83"/>
    <circle class="cls-1" cx="980.29" cy="897.77" r="85.13"/>
    <circle class="cls-1" cx="858.69" cy="1126.78" r="81.55"/>
    <circle class="cls-1" cx="544.24" cy="1171.03" r="74.64"/>
  </g>
</svg>