<?xml version="1.0" encoding="UTF-8"?>
<svg id="Layer_2" data-name="Layer 2" xmlns="http://www.w3.org/2000/svg" viewBox="0 0 1554.75 1516.11">
  <defs>
    <style>
      .cls-1 {
        fill: #f6ece3;
      }
    </style>
  </defs>
  <g id="Layer_2-2" data-name="Layer 2">
    <path class="cls-1" d="M404.22,1332.35c-84.77,0-167.28-17.35-233.33-49.84-43.38-21.33-82.22-53.18-112.33-92.11-31.65-40.91-51.2-86.85-56.55-132.83-10.74-92.29,21.98-190.95,87.52-263.91,25.16-28.01,54.52-52,82.91-75.2,30.79-25.17,62.64-51.19,88.04-81.73,37.14-44.65,53.14-94.08,43.91-135.62-9.83-44.22-46.17-78.05-81.31-110.76-7.36-6.85-14.96-13.93-22.21-21-50.03-48.8-77.38-96.33-83.6-145.29-3.51-27.67,1.29-55.2,14.27-81.85,11.06-22.7,28.08-44.78,50.59-65.64C221.94,39.68,320.65.97,416.94.03c98.84-.97,199.79,21.78,291.92,65.76,92.13,43.98,173.29,108.17,234.7,185.63,54.43,68.66,95.53,135.41,125.63,204.06,31.09,70.91,51.69,146.46,62.96,230.99,8.96,67.2,5.39,177.72-16.08,246.37-11.77,37.65-32.1,75.24-62.14,114.93-56.56,74.74-131.14,135.64-215.68,176.12-121.45,58.16-239.12,91.58-370.32,105.18-21.23,2.2-42.54,3.28-63.71,3.28ZM199.13,94.9h0c-43.37,40.19-62.57,82.58-57.05,126,5.48,43.14,30.43,85.85,76.26,130.55,7.04,6.86,14.53,13.84,21.79,20.59,37.94,35.32,77.17,71.83,88.68,123.64,5.91,26.6,3.68,54.91-6.64,84.16-8.75,24.8-23.43,50-42.46,72.87-26.95,32.4-59.73,59.19-91.44,85.11-27.66,22.6-56.26,45.98-80.13,72.55-60.82,67.71-91.21,159.04-81.29,244.32,9.53,81.93,71.85,164.47,155.08,205.4,62.67,30.82,141.22,47.28,222.12,47.28,20.37,0,40.87-1.04,61.31-3.16,128.26-13.29,243.32-45.98,362.1-102.86,80.96-38.77,152.38-97.09,206.54-168.66,28.27-37.36,47.32-72.46,58.22-107.31,20.17-64.48,23.57-172.5,15.16-235.61-21.51-161.35-76.36-287.8-183.4-422.82C805.38,117.35,613.85,25,422.94,25c-1.92,0-3.83,0-5.75.03-55.1.54-102.82,13.47-133.15,24.23-36.17,12.83-67.91,29.89-84.91,45.64Z"/>
    <path class="cls-1" d="M1412,589.51c-19.95,0-37.83-3.46-52.53-10.26-24.11-11.15-39.95-31.26-45.8-58.15-9.37-43.08-1.25-88.04,24.83-137.42,22.17-41.97,53.33-80.43,83.47-117.62,13.52-16.69,26.29-32.45,37.52-47.67,6.46-8.76,16.94-13.28,28.07-12.1,11.79,1.25,22.1,8.66,26.91,19.34h0c19.05,42.28,32.92,95.9,38.06,147.11,4.13,41.11,4.51,99.47-17.09,144.06-19.41,40.07-56.31,66.09-101.22,71.37-7.64.9-15.07,1.34-22.22,1.34ZM1484.08,231.1c-1.47,0-3.22.43-4.46,2.12-11.56,15.68-24.51,31.66-38.22,48.57-56.98,70.31-121.57,150-103.3,233.99,10.8,49.65,63.02,51.1,93.2,47.56,36.27-4.27,66.03-25.2,81.65-57.44,14.87-30.69,20.09-77.09,14.72-130.67-4.88-48.63-17.99-99.41-35.98-139.34-1.41-3.12-4.52-4.51-6.76-4.75-.27-.03-.55-.05-.85-.05Z"/>
    <path class="cls-1" d="M1135.76,1516.11c-7.78,0-15.06-2.86-20.96-8.35-14.39-13.36-18.35-40.34-15.95-59.76,35.33-285.06,105.38-569.27,208.21-844.73,19.17-51.36,51.99-42.99,75.96-36.87,7.47,1.91,14.53,3.71,21.38,4.18,13.89.97,39.26,3.34,53.15,8.38,4.63,1.68,15.25,7.48,13.86,25.04-.57,7.15-2.92,14.52-4.81,20.44l-.59,1.85c-87.38,277.1-181.07,556.4-278.47,830.15-5.09,14.31-10.86,30.54-22.1,43.92-7,8.34-14.79,13.42-23.14,15.09-2.21.44-4.4.66-6.54.66ZM1318.77,607.65l11.71,4.37c-102.16,273.63-171.74,555.93-206.83,839.06-1.86,14.97,1.88,32.54,8.15,38.36,1.69,1.56,3.21,1.97,5.6,1.49,2.61-.52,5.69-2.82,8.9-6.65,8.34-9.93,13.09-23.3,17.69-36.23,97.3-273.46,190.89-552.48,278.19-829.29l.62-1.94c1.03-3.23,3.52-11.02,3.77-15.17-10.18-2.97-28.92-5.1-43.9-6.14-9.11-.63-17.61-2.8-25.83-4.9-24.05-6.14-35.03-8.94-46.35,21.39l-11.71-4.37Z"/>
    <path class="cls-1" d="M907.12,853.81c-70.1,0-127.12-57.03-127.12-127.12s57.03-127.12,127.12-127.12,127.12,57.03,127.12,127.12-57.03,127.12-127.12,127.12ZM907.12,624.56c-56.31,0-102.12,45.81-102.12,102.12s45.81,102.12,102.12,102.12,102.12-45.81,102.12-102.12-45.81-102.12-102.12-102.12Z"/>
    <path class="cls-1" d="M753.51,498.23c-64.97,0-117.83-52.86-117.83-117.83s52.86-117.83,117.83-117.83,117.83,52.86,117.83,117.83-52.86,117.83-117.83,117.83ZM753.51,287.56c-51.19,0-92.83,41.65-92.83,92.83s41.65,92.83,92.83,92.83,92.83-41.65,92.83-92.83-41.65-92.83-92.83-92.83Z"/>
    <path class="cls-1" d="M429.7,347.49c-59.26,0-107.46-48.21-107.46-107.46s48.21-107.46,107.46-107.46,107.46,48.21,107.46,107.46-48.21,107.46-107.46,107.46ZM429.7,157.56c-45.47,0-82.46,36.99-82.46,82.46s36.99,82.46,82.46,82.46,82.46-36.99,82.46-82.46-36.99-82.46-82.46-82.46Z"/>
    <path class="cls-1" d="M525.6,762.36c-64.39,0-116.77-52.38-116.77-116.77s52.38-116.77,116.77-116.77,116.77,52.38,116.77,116.77-52.38,116.77-116.77,116.77ZM525.6,553.82c-50.6,0-91.77,41.17-91.77,91.77s41.17,91.77,91.77,91.77,91.77-41.17,91.77-91.77-41.17-91.77-91.77-91.77Z"/>
    <path class="cls-1" d="M671.26,1141.25c-63.64,0-115.42-51.78-115.42-115.42s51.78-115.42,115.42-115.42,115.42,51.78,115.42,115.42-51.78,115.42-115.42,115.42ZM671.26,935.41c-49.86,0-90.42,40.56-90.42,90.42s40.56,90.42,90.42,90.42,90.42-40.56,90.42-90.42-40.56-90.42-90.42-90.42Z"/>
    <path class="cls-1" d="M291.36,1123.83c-61.06,0-110.73-49.67-110.73-110.73s49.67-110.73,110.73-110.73,110.73,49.67,110.73,110.73-49.67,110.73-110.73,110.73ZM291.36,927.36c-47.27,0-85.73,38.46-85.73,85.73s38.46,85.73,85.73,85.73,85.73-38.46,85.73-85.73-38.46-85.73-85.73-85.73Z"/>
  </g>
</svg>