<svg width="52" height="52" viewBox="0 0 52 52" fill="none" xmlns="http://www.w3.org/2000/svg">
<path d="M39.9532 6.62988H12.0465C10.6112 6.63389 9.23576 7.20585 8.22081 8.22081C7.20585 9.23576 6.63389 10.6112 6.62988 12.0465V39.9532C6.63389 41.3886 7.20585 42.764 8.22081 43.779C9.23576 44.7939 10.6112 45.3659 12.0465 45.3699H39.9532C41.3898 45.3699 42.7676 44.7992 43.7834 43.7834C44.7992 42.7676 45.3699 41.3898 45.3699 39.9532V12.0465C45.3699 10.61 44.7992 9.23221 43.7834 8.21639C42.7676 7.20057 41.3898 6.62988 39.9532 6.62988ZM43.2032 39.9532C43.1975 40.8134 42.8533 41.6368 42.245 42.245C41.6368 42.8533 40.8134 43.1975 39.9532 43.2032H12.0465C11.1863 43.1975 10.363 42.8533 9.75473 42.245C9.14646 41.6368 8.80223 40.8134 8.79655 39.9532V12.0465C8.80223 11.1863 9.14646 10.363 9.75473 9.75473C10.363 9.14646 11.1863 8.80223 12.0465 8.79655H39.9532C40.8134 8.80223 41.6368 9.14646 42.245 9.75473C42.8533 10.363 43.1975 11.1863 43.2032 12.0465V39.9532Z" fill="#FFCFD5"/>
<path d="M13.8145 23.2873C13.8145 22.7126 14.0427 22.1615 14.4491 21.7552C14.8554 21.3489 15.4065 21.1206 15.9811 21.1206C16.5558 21.1206 17.1069 21.3489 17.5132 21.7552C17.9195 22.1615 18.1478 22.7126 18.1478 23.2873V37.3706C18.1478 37.9452 17.9195 38.4963 17.5132 38.9027C17.1069 39.309 16.5558 39.5373 15.9811 39.5373C15.4065 39.5373 14.8554 39.309 14.4491 38.9027C14.0427 38.4963 13.8145 37.9452 13.8145 37.3706V23.2873Z" fill="#FFCFD5"/>
<path d="M15.9811 16.7786C17.1777 16.7786 18.1478 15.8086 18.1478 14.612C18.1478 13.4154 17.1777 12.4453 15.9811 12.4453C14.7845 12.4453 13.8145 13.4154 13.8145 14.612C13.8145 15.8086 14.7845 16.7786 15.9811 16.7786Z" fill="#FFCFD5"/>
<path d="M38.1767 28.9681V37.3748C38.1767 37.9494 37.9484 38.5005 37.5421 38.9069C37.1358 39.3132 36.5847 39.5415 36.0101 39.5415C35.4354 39.5415 34.8843 39.3132 34.478 38.9069C34.0717 38.5005 33.8434 37.9494 33.8434 37.3748V28.9681C33.8434 28.0401 33.4747 27.1501 32.8185 26.4938C32.1623 25.8376 31.2723 25.469 30.3442 25.469C29.4162 25.469 28.5262 25.8376 27.8699 26.4938C27.2137 27.1501 26.8451 28.0401 26.8451 28.9681V37.3748C26.8451 37.9494 26.6168 38.5005 26.2104 38.9069C25.8041 39.3132 25.253 39.5415 24.6784 39.5415C24.1037 39.5415 23.5526 39.3132 23.1463 38.9069C22.74 38.5005 22.5117 37.9494 22.5117 37.3748V23.2915C22.5207 22.7196 22.7518 22.1737 23.1562 21.7693C23.5606 21.3649 24.1065 21.1337 24.6784 21.1248C25.0454 21.1147 25.4082 21.2041 25.7286 21.3833C26.049 21.5626 26.315 21.8251 26.4984 22.1431C27.6898 21.4679 29.0375 21.1173 30.4069 21.1264C31.7763 21.1354 33.1193 21.5039 34.3016 22.1948C35.484 22.8858 36.4641 23.8751 37.1442 25.0637C37.8242 26.2524 38.1803 27.5987 38.1767 28.9681Z" fill="#FFCFD5"/>
</svg>
