<?xml version="1.0" encoding="UTF-8"?>
<svg id="Layer_2" data-name="Layer 2" xmlns="http://www.w3.org/2000/svg" viewBox="0 0 1799.61 1781.74">
  <defs>
    <style>
      .cls-1 {
        fill: #442f2a;
      }
    </style>
  </defs>
  <g id="Layer_1-2" data-name="Layer 1">
    <path class="cls-1" d="M901,0c-.58,0-1.12,0-1.71,0-110.13.44-199.2,89.89-199.08,200.11.12,110.42,89.69,199.89,200.11,199.89.03,0,.08,0,.11,0h.57c110.46-.06,200-89.65,200-200.11S1011.62.09,901.29,0c-.09,0-.2,0-.29,0h0ZM442.21,167.67c-45.39,0-91.03,15.38-128.48,46.85-.26.22-.53.45-.79.67-.17.14-.33.28-.5.42-.07.06-.08.07-.15.13-84.21,71.38-94.63,197.47-23.26,281.7,39.58,46.71,95.99,70.74,152.78,70.74,45.67,0,91.59-15.55,129.17-47.36l.43-.36c84.31-71.36,94.85-197.59,23.54-281.94-39.55-46.78-95.95-70.85-152.74-70.85h0ZM199.84,590.18c-95.5,0-179.94,68.67-196.72,165.91-.07.38-.13.74-.19,1.12-.01.07-.02.15-.04.22-.02.15-.06.36-.09.51-18.29,108.74,54.93,211.77,163.69,230.22,11.33,1.92,22.58,2.85,33.69,2.85,95.76,0,180.44-69,197.05-166.57l.09-.55c18.53-108.89-54.71-212.24-163.59-230.83-11.4-1.95-22.71-2.89-33.9-2.89h0ZM286.66,1069.64c-34.35,0-69.15,8.85-100.92,27.46-95.15,55.72-127.18,177.9-71.7,273.11.38.64.72,1.23,1.1,1.87,37.28,63.14,103.88,98.29,172.3,98.29,34.38,0,69.23-8.88,101.03-27.55,95.26-55.92,127.18-178.5,71.31-273.79l-.28-.48c-37.25-63.53-104.13-98.92-172.83-98.92h0ZM663.49,1381.37c-82.37,0-159.55,51.26-188.63,133.31-36.9,104.11,17.6,218.38,121.73,255.22.13.05.26.09.39.14.41.15.78.28,1.19.42,21.85,7.65,44.13,11.28,66.05,11.28,82.36,0,159.47-51.29,188.46-133.38,36.79-104.15-17.81-218.45-121.94-255.29l-.53-.19c-22.07-7.81-44.58-11.51-66.73-11.51h0ZM1151.17,1376.74c-23.37,0-47.14,4.13-70.3,12.82l-.52.19c-103.41,38.83-155.8,154.16-117.02,257.59,30.09,80.27,106.25,129.78,187.18,129.78,23.16,0,46.71-4.05,69.68-12.6.27-.1.58-.22.85-.32.16-.06.32-.12.49-.18.24-.09.47-.18.72-.27,103.06-39.03,155.11-154.1,116.28-257.31-30.18-80.23-106.39-129.71-187.35-129.7h0ZM1521.3,1059.25c-69.88,0-137.75,36.66-174.51,101.85l-.28.49c-54.26,96.21-20.27,218.24,75.92,272.54,31.07,17.54,64.82,25.87,98.11,25.87,69.6,0,137.2-36.43,174-101.25.35-.62.71-1.26,1.06-1.89,53.85-96.13,19.76-217.73-76.32-271.84-31.03-17.48-64.74-25.78-98-25.78h0ZM1599.73,576.86c-12.41,0-25,1.16-37.65,3.57-108.51,20.67-179.76,125.4-159.15,233.92l.1.55c18.22,95.95,102.17,162.8,196.39,162.8,12.34,0,24.87-1.15,37.44-3.53,108.53-20.55,179.8-125.18,159.19-233.7,0-.03-.01-.07-.02-.1-.06-.29-.1-.55-.16-.84,0-.01,0-.02,0-.04-18.21-95.87-102.03-162.63-196.14-162.63h0ZM1349.36,159.01c-58.07,0-115.66,25.19-155.18,73.77-69.7,85.69-56.77,211.69,28.88,281.44l.44.36c37.12,30.23,81.81,44.94,126.24,44.94,58.07,0,115.68-25.15,155.22-73.66,69.7-85.49,56.98-211.2-28.35-281.01-.26-.22-.53-.43-.8-.65-.11-.09-.22-.18-.34-.27-37.09-30.21-81.74-44.91-126.11-44.91h0Z"/>
  </g>
</svg>