<?xml version="1.0" encoding="UTF-8"?>
<svg id="Layer_2" data-name="Layer 2" xmlns="http://www.w3.org/2000/svg" viewBox="0 0 1699.58 505.4">
  <defs>
    <style>
      .cls-1 {
        fill: #f6ece3;
      }
    </style>
  </defs>
  <g id="Layer_1-2" data-name="Layer 1">
    <g>
      <path class="cls-1" d="M18.2,500.5c-8.87,0-14.94-.24-18.2-.7,3.26-27.06,17.61-95.78,43.05-206.15,25.43-110.36,38.15-180.25,38.15-209.65,0-5.6-3.27-12.95-9.8-22.05-6.54-9.1-13.07-16.68-19.6-22.75l-9.1-9.8,2.1-11.2C108.73,6.07,176.4,0,247.8,0c85.86,0,128.8,33.84,128.8,101.5,0,33.14-8.29,63.35-24.85,90.65-16.57,27.3-42.35,48.65-77.35,64.05,26.13,87.27,48.53,143.74,67.2,169.4,8.4,10.74,14.93,16.1,19.6,16.1,8.4,0,21.46-4.2,39.2-12.6l8.4-4.2,16.1,25.9c-17.27,15.87-37.22,28.94-59.85,39.2-22.64,10.26-43.87,15.4-63.7,15.4s-36.17-8.51-49-25.55c-12.84-17.03-24.5-42.11-35-75.25-10.5-33.13-21.12-75.6-31.85-127.4-14.94.94-26.37,1.4-34.3,1.4-23.8,102.2-36.87,171.27-39.2,207.2-20.07,9.8-51.34,14.7-93.8,14.7ZM178.5,231c28,0,50.05-12.48,66.15-37.45,16.1-24.96,24.15-54.71,24.15-89.25,0-18.2-3.27-32.9-9.8-44.1-6.54-11.2-16.34-16.8-29.4-16.8-5.6,0-12.25.82-19.95,2.45-7.7,1.64-11.55,2.69-11.55,3.15-7.47,48.07-19.6,108.74-36.4,182h16.8Z"/>
      <path class="cls-1" d="M817.25,61.6c12.36,18.67,21.58,38.39,27.65,59.15,6.06,20.77,9.1,43.75,9.1,68.95s-2.8,52.04-8.4,80.5c-5.6,28.47-14.94,56.94-28,85.4-13.07,28.47-28.94,53.67-47.6,75.6-18.67,21.94-42.24,39.79-70.7,53.55-28.47,13.76-59.74,20.65-93.8,20.65-49.94,0-88.67-17.85-116.2-53.55-27.54-35.7-41.3-81.66-41.3-137.9s9.91-107.8,29.75-154.7c19.83-46.9,48.3-85.16,85.4-114.8C600.25,14.82,641.43,0,686.7,0c29.86,0,56,5.6,78.4,16.8,22.4,11.2,39.78,26.14,52.15,44.8ZM628.12,470.12c21.7,0,50.91,2.7,72.17-9.33,51.5-29.17,40.83-42.67,60.83-69.67,27.16-36.66,12.33-79.94,19.83-92.67,15.49-26.25,36.88-29.28,40.83-58.5,4.46-32.98,2.25-44.35,2.25-78.25,0-28.67-36.99-73.97-41.92-92.25-8.78-32.6-76.33-43.81-103.83-44.17-22.06-.28-50.33,8.04-63.83,12.33-17.25,5.48-27.33,25.83-41.83,40.83-19.22,19.88-55.91,52.9-59.33,82.33-5.16,44.31-31.17,35.84-31.17,93.89,0,22.22-5.75,108.14,6.17,127.45,16.37,26.52,26.91,17.31,45.5,66.67,9.17,24.33,32.09,30.62,45.17,31.5,15.9,1.07,27.47-10.17,49.17-10.17Z"/>
      <path class="cls-1" d="M1262.44,61.6c12.36,18.67,21.58,38.39,27.65,59.15,6.06,20.77,9.1,43.75,9.1,68.95s-2.8,52.04-8.4,80.5c-5.6,28.47-14.94,56.94-28,85.4-13.07,28.47-28.94,53.67-47.6,75.6-18.67,21.94-42.24,39.79-70.7,53.55-28.47,13.76-59.74,20.65-93.8,20.65-49.94,0-88.67-17.85-116.2-53.55-27.54-35.7-41.3-81.66-41.3-137.9s9.91-107.8,29.75-154.7c19.83-46.9,48.3-85.16,85.4-114.8,37.1-29.63,78.28-44.45,123.55-44.45,29.86,0,56,5.6,78.4,16.8s39.78,26.14,52.15,44.8ZM1072.04,457.8c21.7,0,40.13-9.56,55.3-28.7,15.16-19.13,26.71-44.1,34.65-74.9,15.86-60.66,23.8-122.96,23.8-186.9,0-79.8-21.47-119.7-64.4-119.7-24.27,0-45.5,14.47-63.7,43.4-34.07,54.6-51.1,130.2-51.1,226.8,0,52.74,3.03,85.4,9.1,98,2.8,7,6.53,14.24,11.2,21.7,8.4,13.54,23.45,20.3,45.15,20.3Z"/>
      <path class="cls-1" d="M1397.88,0l233.8,7.7,65.8-1.4c1.4,9.8,2.1,20.07,2.1,30.8s-1.87,18.44-5.6,23.1c-3.74,4.67-10.5,7-20.3,7-.94,0-33.84-3.03-98.7-9.1-1.87,21-8.87,56.94-21,107.8-12.14,50.87-23.8,105.24-35,163.1-11.2,57.87-17.04,109.9-17.5,156.1-18.2,9.34-55.54,14-112,14h-4.9c0-24.26,13.3-96.6,39.9-217,26.6-120.4,39.9-193.66,39.9-219.8,0-1.86-.47-5.13-1.4-9.8h-28c-38.27,0-67.67,5.84-88.2,17.5-10.74-14-17.27-34.53-19.6-61.6,15.86-5.6,39.43-8.4,70.7-8.4Z"/>
      <path class="cls-1" d="M759.91,115.99c4.31,7.13,14.77,11.84,17.92,19.4,2.78,6.68,2.94,17.32,3.17,25.58.42,15.46,10.07,34.96,10.07,53.09s-13.95,31.74-25.58,43.92c-14.37,15.05-20.96,41.55-29.54,62.03-8.59,20.48,5.18,46.13-7.08,61.91-12.27,15.79-32.67,33.37-39.47,41.18-13.89,15.97-35.46,4.52-57.83,4.33-23.4-.2-48.77,10.22-53.63,6.28-7.13-5.77-11.55-25.13-15.96-36-6.46-15.89-18.85-16.41-40.24-49.24-7.53-11.56-3.23-34.13-3.23-50.65,0-40.46,16.51-72.44,25.8-108.27,2.79-10.75,1.04-23.37,6.09-32.54,11.45-20.78,25.64-38.56,42.55-53.36,11.79-10.31,17.7-24.04,27.31-34.71,7.35-8.15,22.79-11.32,38.14-11.32,11.4,0,32.39,1.69,42.14,4.41,7.03,1.96,25.6,6.47,31.77,9.85,14.72,8.06,19.47,30.68,27.59,44.11ZM634.81,409.59c14.26,0,27.54,5.75,41.6-2.72,9.73-5.86,37.9-29.16,37.86-39.67-.17-48.62,2.45-58.46,7.98-68.31,10.5-18.71,22.15-29.78,29.14-49.78,6.52-18.64,29.73-16.84,20.88-39.57-19.7-50.6-.1-68.17-37.11-86.73-21.59-10.83-19.62-35.57-37.69-35.83-14.5-.2-44.1-3.43-52.97-.34-11.33,3.94-35.06,26.7-41.77,38.37-9.53,16.94-28.14,31.63-30.39,52.8-3.39,31.88-26.15,45.85-26.15,87.61,0,15.99-8.85,54.7-1.02,68.59,10.76,19.08,25.84,18.22,30.22,31.92,1.63,5.11,12.87,32.16,15.94,37.52,5.52,9.74,29.23,6.11,43.49,6.11Z"/>
      <path class="cls-1" d="M720.95,160.29c2.52,4.5,5.77,14.57,7.6,19.33,1.63,4.21,3.09,13.12,3.22,18.33.25,9.75,5.51,8.73,5.51,20.17s-10.43,30.82-17.22,38.5c-8.39,9.49-10.24,21.8-20.11,37.42-7.4,11.72-1.45,28.39-4.95,40.14-3.78,12.66-21.11,36-25.22,38.33-11.25,6.38-21.82,11.34-34.89,11.22-13.67-.12-18.72-15.96-21.56-18.44-4.16-3.64-12.44-9.76-15.32-13.25-6.66-8.09-11.78-33.86-18.95-42.41-5.47-6.53-4.4-19.14-4.4-29.56,0-25.52,7.13-44.63,12.56-67.22,1.63-6.78,5.86-15.1,8.81-20.88,6.69-13.11,8.48-25.11,18.36-34.44,6.89-6.51,11.57-14.02,17.19-20.75,4.29-5.14,9.91-14.64,18.87-14.64,6.66,0,21.47-.05,27.16,1.67,4.1,1.24,16.4,14.7,20,16.83,8.59,5.08,18.59,11.2,23.33,19.67ZM641.06,365.51c8.33,0,17.01-18.43,25.22-23.78,5.68-3.7,11.77-16.42,13.48-22.79,3.38-12.6,4.46-25.97,7.34-31.74,5.94-11.91,24.66-30.1,26.18-43.36,1.71-14.97-.53-11.74.05-27.11,1.29-34.11-7.81-33.28-10.21-41.44-9-30.5-32.61-31.28-43.17-31.44-8.46-.13-13.78,3.22-20.1,16.55-3.03,6.39-10.66,9.28-14.58,16.64-5.56,10.69-19.53,22.95-20.85,36.31-1.98,20.11-9.72,33.72-9.72,60.06,0,10.08-5.33,18.79-.76,27.55,6.28,12.04,4.91,21.25,11.56,32.22,7,11.56,14.93,17.94,18.22,19.89,3.98,2.36,9.01,12.44,17.33,12.44Z"/>
      <path class="cls-1" d="M693.56,185.51c1.52,2.81,5.22,4.66,6.33,7.63.98,2.63,1.04,6.82,1.12,10.07.15,6.08,3.56,13.76,3.56,20.89s3.94,17.83-.17,22.63c-5.08,5.92-12.51,13.09-15.54,21.15-3.03,8.06-10.32,17.61-14.65,23.82-4.33,6.21,2.17,18.92-15.45,40.71-5.01,6.2-13.55,17.21-20.22,17.62-4.16.26-12.37-10.95-14.08-12.5-2.52-2.27-8.69-8.01-10.43-10.19-4.03-5.04-3.63-13.61-10.15-27.08-1.71-3.53-5.45-8.14-4.37-15.62,1.46-10.19,5.64-25.56,5.64-29.12,0-15.92,5.9-28.99,9.18-43.09.99-4.23,3.44-7.16,5.23-10.77,4.05-8.18,9.06-15.18,15.03-21,4.17-4.06,6.25-9.46,9.65-13.66,2.6-3.21,10.8-10.96,16.23-10.96,4.03,0,12.9-.93,16,.92,7.72,4.61,10.98,7.58,12.44,10.5,2.73,5.44,1.79,12.77,4.66,18.06ZM639.47,323.74c5.04,0,7.5-6.87,12.47-10.2,3.44-2.31,11.11-29.5,12.14-33.47,2.04-7.86,11.99-15.61,13.73-19.21,3.59-7.43,11.82-14.68,12.73-22.95,1.04-9.34.78-14.18.78-23.78,0-8.12-7.1-17.94-8.24-23.12-2.04-9.23-9.09-21.45-15.47-21.55-5.12-.08-8.5,4.75-17.78,15.17-2.86,3.21-7.06,2.91-9.43,7.5-3.37,6.67-11.54,1.83-10.46,22.08.76,14.15-13.48,30.98-13.26,38.29.11,3.78-.99,18.1-4.38,30.1-1.99,7.06,3.67,11.59,4.78,13.77,3.8,7.51,3.56,11.48,4.37,13.55.65,1.98,6.44,5.97,7.52,8.08,1.95,3.83,5.44,5.75,10.48,5.75Z"/>
      <path class="cls-1" d="M680.7,208.54c.76,1.4,3.72,5.32,4.27,6.81.49,1.31.52,3.4.56,5.03.07,3.04.42,9.27.42,12.83s-2.11,9.61-4.17,12c-2.54,2.96-6.9,8.39-8.42,12.42-1.51,4.03-8.5,9.82-10.67,12.92-1.21,1.74-7.74,13.04-8.47,18.25-.96,6.9-3.14,12.99-7.02,17.78-2.5,3.1-6.77,8.59-10.1,8.8-2.08.13-6.17-5.47-7.03-6.24-1.26-1.13-4.34-4-5.21-5.09-2.01-2.52-1.31-7.06-5.07-13.52-5.61-9.65,4.48-14.23,2.48-31.4-.59-5.1,2.54-11.73,3.08-13.42,2.5-7.72,6.57-10.56,8.21-17.6.49-2.11,1.72-3.58,2.61-5.38,2.02-4.08,1.71-14.46,4.7-17.37,2.08-2.03,3.12-4.72,4.82-6.82,1.3-1.6,15.3-11.12,18.01-11.12,2.01,0,6.44-.47,7.99.46,3.86,2.3,5.94,10.19,6.67,11.65,1.37,2.72.89,6.38,2.33,9.02ZM637.37,298.45c2.52,0,9.23-19.43,10.42-22.17,4.24-9.75,7.42-16.09,9.33-17.67,3.13-2.58,6.8-10.78,7.67-12.58,1.79-3.71,5.13-5.45,5.58-9.58.52-4.66,1.66-2.71,1.66-7.5,0-4.05-3.54-8.96-4.11-11.54-1.02-4.61-4.54-10.71-7.73-10.76-2.56-.04-4.24,2.37-8.88,7.57-1.43,1.6-2.76,4.27-3.95,6.57-1.68,3.33-3.82,6.3-4.17,12.92-.37,7.06-6.04,11.65-8.44,14.4-1.37,1.57-2.4,5.91-4.09,11.9-1,3.52-.25,12.24-.89,13.28-4.5,7.33-2.81,10.28-.94,13.06.58.87,2.82,3.39,3.36,4.44.97,1.91,2.65,7.67,5.17,7.67Z"/>
      <path class="cls-1" d="M665.21,226.16c-.14,1.02.51,1.94.56,2.98.38,7.85-2.77,9.81-4.1,11.93-2.07,2.99-1.7,8.78-9.47,16.37-.4.39-.73.82-.95,1.33-.97,2.17-6.05,8.37-7.34,11.44-1.58,3.79-2.69,9.41-4.04,12.54-1.67,3.85-.87,8.08-2.92,8.48-1.07.21-2.83-2.51-4.04-7.52-.38-1.57-3.07-2.67.57-7.31.36-.46-.39-3.11-.4-3.14-.5-2.26,3.61-9.42,3.29-13.63-.58-7.64,4.1-8.38,5.25-11.33.08-.21.14-.42.19-.64.38-1.74,2.65-5.28,3.65-6.67.38-.53.65-1.13.75-1.78.51-3.17,1.92-11.98,7.02-17.33.34-.36,3.9-6.45,6.92-3.81,2.93,2.57,5.53,4.79,5.07,8.09Z"/>
    </g>
    <path class="cls-1" d="M576.88,457.78c-9.37,0-18.24-2.92-24-13.42-.14-.25-.26-.52-.35-.79-11.88-34.85-24.05-47.74-34.78-59.12-12.42-13.17-22.23-23.57-24.54-59.26-1.43-14.69-.2-29.02.99-42.89.39-4.5.79-9.15,1.09-13.76-.25-13.22,4.11-23.24,8.33-32.93,2.86-6.57,5.82-13.37,7.46-21.39h0c14.38-70.26,42.07-106.09,98.7-159.81,15.92-15.11,45.16-18.91,65.59-16.05,5,.7,10.67,1.15,16.66,1.63,19.62,1.57,41.85,3.34,54.73,14.92,6.84,6.15,11.4,14.07,15.82,21.74,4.18,7.26,8.13,14.12,13.63,18.87,27.34,23.65,30.87,56.91,34.61,92.11.52,4.93,1.07,10.03,1.67,15.05,4.07,33.54-9.26,52.77-33.67,74.62-14.99,14.33-17.15,32.82-19.24,50.71-.53,4.52-1.02,8.79-1.73,12.95-.36,2.14-.71,4.27-1.06,6.39-4.48,27.22-8.72,52.93-30.14,73.13l-1.79,1.98c-12.4,13.67-22.2,24.48-38.07,30.21-14.44,5.22-30.01,3.55-46.5,1.78-9.55-1.02-19.42-2.08-28.97-1.66-4.75.21-9.92,1.27-15.4,2.4-6.03,1.24-12.66,2.6-19.06,2.6ZM561.85,439.91c5.88,10.26,16.06,8.76,32.09,5.48,5.62-1.15,11.42-2.34,16.96-2.59,10.3-.46,20.56.64,30.48,1.7,15.31,1.64,29.78,3.19,42.04-1.24,13.53-4.89,22.14-14.38,34.06-27.52l1.93-2.13c.09-.1.18-.19.28-.28,19.08-17.91,22.87-40.94,27.27-67.61.35-2.13.7-4.27,1.07-6.43.66-3.91,1.14-8.06,1.66-12.44,2.19-18.75,4.67-40.01,22.32-56.84.04-.04.08-.07.12-.11,23.02-20.6,34.05-36.47,30.47-66.02-.62-5.09-1.16-10.23-1.69-15.2-3.53-33.19-6.86-64.54-31.21-85.61-6.77-5.86-11.34-13.78-15.75-21.44-4.21-7.31-8.19-14.21-13.84-19.29-10.36-9.32-30.8-10.95-48.84-12.39-6.15-.49-11.96-.96-17.25-1.7-18.71-2.62-44.4,1.14-57.32,13.4-55.05,52.23-81.95,86.95-95.79,154.56h0c-1.85,9.04-5.02,16.33-8.09,23.38-4.16,9.56-7.75,17.81-7.5,28.94,0,.15,0,.29,0,.44-.31,4.78-.72,9.56-1.12,14.18-1.21,14.06-2.35,27.35-.99,41.14,0,.06.01.11.01.17,2.07,32.17,10.36,40.96,21.84,53.13,10.82,11.47,24.28,25.74,36.82,62.32Z"/>
    <path class="cls-1" d="M635.93,401.81c-10.5,0-20.75-1.4-27.65-4.97-8.72-4.42-12.79-14.7-16.73-24.64-2.25-5.67-4.37-11.02-7.12-14.67l-.18-.26c-3.33-5.21-7.52-9.04-11.57-12.75-8.88-8.13-18.07-16.54-17.18-37.89.26-6.3.1-12.36-.05-18.23-.4-15.09-.82-30.69,6.25-49.84,2.72-7.38,5.23-14.84,7.89-22.74,8.19-24.34,16.65-49.52,31.39-71.13l2.52-3.71c13.93-20.52,27.09-39.89,43-40.81,46.68-2.68,53.6,4.35,61.04,16.05,3.02,4.75,6.15,9.66,15.07,14.41,17.49,9.3,19.81,19,22.04,28.39.69,2.9,1.35,5.64,2.46,8.44,3.13,7.87,4.45,15.47,5.61,22.17,1.03,5.93,2,11.53,4.05,16.19,5.38,12.19-.36,23.81-26.02,63.51-4.44,6.86-7.28,12.68-10.04,18.3-1.96,4.01-3.99,8.16-6.53,12.5h0c-4.31,7.4-4.7,18.33-5.07,28.9-.23,6.41-.46,13.04-1.56,19.04-4.05,22.06-22.76,38.1-31.75,45.81-4.83,4.14-22.68,7.9-39.88,7.9ZM590.9,352.84c3.36,4.5,5.76,10.56,8.08,16.42,3.39,8.55,6.89,17.4,12.94,20.46,16.45,8.51,53.98,2.14,58.67-1.88,8.29-7.11,25.55-21.91,29.09-41.19,1-5.42,1.21-11.47,1.44-17.88.41-11.56.84-23.51,6.16-32.65h0c2.39-4.1,4.27-7.93,6.25-12,2.86-5.83,5.81-11.86,10.5-19.12,26.07-40.33,28.85-48.17,25.42-55.94-2.45-5.56-3.5-11.63-4.62-18.06-1.15-6.63-2.34-13.48-5.16-20.58-1.33-3.34-2.08-6.5-2.81-9.55-2.08-8.7-3.72-15.58-18.02-23.18-10.78-5.73-14.82-12.08-18.06-17.18-5.5-8.65-9.48-14.91-53.83-12.36-11.97.69-24.61,19.31-36.84,37.31l-2.53,3.72c-14.11,20.7-22.4,45.34-30.42,69.17-2.56,7.61-5.21,15.48-7.97,22.96-6.54,17.7-6.16,31.86-5.76,46.85.16,6,.32,12.2.05,18.78-.74,17.63,6.02,23.82,14.58,31.65,4.4,4.03,8.95,8.19,12.83,14.21Z"/>
  </g>
</svg>