<?xml version="1.0" encoding="UTF-8"?>
<svg id="Layer_2" data-name="Layer 2" xmlns="http://www.w3.org/2000/svg" viewBox="0 0 1774.42 1774.42">
  <defs>
    <style>
      .cls-1 {
        fill: #442f2a;
      }

      .cls-2 {
        fill: #f6ece3;
      }
    </style>
  </defs>
  <g id="Layer_2-2" data-name="Layer 2">
    <circle class="cls-2" cx="887.21" cy="887.21" r="887.21"/>
    <path class="cls-1" d="M899.79,240.72c189.63,0,343.36,153.73,343.36,343.36s-153.73,343.36-343.36,343.36-343.36-153.73-343.36-343.36,153.73-343.36,343.36-343.36M899.79,220.72c-49.04,0-96.63,9.61-141.44,28.56-43.27,18.3-82.13,44.5-115.49,77.86-33.36,33.36-59.56,72.22-77.86,115.49-18.95,44.81-28.56,92.4-28.56,141.44s9.61,96.63,28.56,141.44c18.3,43.27,44.5,82.13,77.86,115.49s72.22,59.56,115.49,77.86c44.81,18.95,92.4,28.56,141.44,28.56s96.63-9.61,141.44-28.56c43.27-18.3,82.13-44.5,115.49-77.86,33.36-33.36,59.56-72.22,77.86-115.49,18.95-44.81,28.56-92.4,28.56-141.44s-9.61-96.63-28.56-141.44c-18.3-43.27-44.5-82.13-77.86-115.49-33.36-33.36-72.22-59.56-115.49-77.86-44.81-18.95-92.4-28.56-141.44-28.56h0Z"/>
    <path class="cls-1" d="M556.84,611.97l-2.12-9.77c7.03-1.52,13.21-8.07,18.36-19.45.78-1.73,1.54-3.5,2.29-5.27,3.71-8.68,7.54-17.66,15.1-24.23,4.51-3.92,9.7-6.4,14.72-8.79,3.89-1.85,7.57-3.61,10.75-5.93,8.65-6.32,13.73-17.09,18.21-26.6,5.69-12.07,12.14-25.74,11.51-39.5-1.34-29.02-20.76-68.66-34.09-84.3l7.61-6.49c16.15,18.95,35.1,60.71,36.46,90.33.75,16.24-6.57,31.76-12.45,44.23-4.75,10.06-10.65,22.59-21.36,30.41-3.93,2.87-8.21,4.91-12.35,6.88-4.62,2.2-8.98,4.28-12.46,7.3-5.82,5.07-9.05,12.62-12.47,20.62-.78,1.83-1.56,3.66-2.38,5.46-6.52,14.43-15.05,22.88-25.35,25.11Z"/>
    <path class="cls-1" d="M679.49,428.99c-.55,0-1.09-.02-1.64-.05-11.61-.76-12.92-9.33-13.62-13.93-.22-1.43-.46-3.04-.88-3.71-.38-.6-1.09-1.22-1.91-1.93-2.49-2.15-6.67-5.74-5.44-13.86,2.79-18.5,18.61-53.19,37.65-50.77,4.19.53,7.73,2.55,10.25,5.84,4.2,5.48,4.48,13.03,4.04,16.26-.3,2.17-.83,4.18-1.34,6.12-.42,1.59-.82,3.1-1.04,4.55-.62,4-.08,8.3.5,12.85.73,5.74,1.48,11.68,0,17.79-2.88,11.96-14.36,20.83-26.58,20.83ZM691.76,354.63c-8.9,0-22.91,22.73-25.88,42.38-.4,2.65.03,3.02,2.08,4.79,1.2,1.04,2.7,2.32,3.88,4.23,1.49,2.4,1.9,5.1,2.27,7.47.71,4.64.93,5.24,4.39,5.47,7.98.52,15.98-5.37,17.85-13.14,1.04-4.34.44-9.13-.21-14.2-.64-5.04-1.3-10.25-.46-15.65.31-1.96.79-3.79,1.26-5.56.45-1.72.88-3.35,1.1-4.92.25-1.81-.11-6.26-2.07-8.82-.9-1.17-2.04-1.81-3.58-2h0c-.21-.03-.42-.04-.63-.04Z"/>
    <path class="cls-1" d="M741.96,442.73c-1.24,0-2.5-.22-3.75-.68-6.02-2.22-10.15-9.45-9.7-16.92-.22-5.33,1.78-9.9,3.55-13.94,2.23-5.09,3.42-8.14,1.92-11.54l-.22-.5-.11-.53c-1.84-9.17,2.46-17.59,6.27-25.03,3.48-6.8,6.76-13.22,4.99-18.98-.92-2.99-3.24-5.73-5.68-8.62-1.61-1.9-3.27-3.85-4.71-6.07-5.76-8.46-6.81-19.51-2.8-29.58,3.98-9.99,12.23-17.26,22.12-19.51,9.15-3.2,31.29-9.18,46.07,1.45,8.38,6.03,12.53,15.96,12.34,29.54.77,15.79-1.45,37.74-16.26,53.04l-.52.46c-8.69,6.78-13.14,16.38-16.65,25.74l-.15.35c-6.53,14.03-17.42,25.66-27.07,35.93-2.64,3.51-6.07,5.38-9.65,5.38ZM743.39,396.2c2.95,7.34.12,13.8-2.16,19.01-1.49,3.4-2.9,6.61-2.71,9.68l.02.35-.03.34c-.28,3.52,1.68,6.55,3.16,7.09.69.25,1.58-.8,2.04-1.45l.41-.5c9.59-10.21,19.51-20.76,25.42-33.35,3.8-10.08,9.1-21.44,19.51-29.69,12.17-12.77,13.91-31.78,13.23-45.51v-.17s0-.17,0-.17c.17-10.2-2.58-17.41-8.18-21.43-7.7-5.54-21.61-5.55-37.19-.04l-.61.17c-6.77,1.46-12.48,6.51-15.27,13.5-2.78,6.99-2.11,14.57,1.8,20.28l.07.1c1.11,1.71,2.51,3.36,3.99,5.11,2.85,3.37,6.09,7.18,7.61,12.13,2.97,9.64-1.6,18.59-5.64,26.48-3.27,6.39-6.36,12.43-5.45,18.05Z"/>
    <path class="cls-1" d="M732.89,886.58l-9.52-3.07c5.29-16.41,6.46-36.37,3.07-52.1-2.81-13.04-9.43-24.71-16.43-37.06-3.8-6.71-7.74-13.65-11.01-20.83-3.69-8.1-6.66-16.73-9.53-25.07-6.6-19.19-12.84-37.32-27.1-49.37-22.18-18.75-37.87-18.34-53.31-16.16-3.29.47-8.16.88-13.31,1.33-8.47.73-19.01,1.63-23.73,2.92l-2.64-9.65c5.6-1.53,16.18-2.44,25.51-3.24,5.01-.43,9.75-.84,12.77-1.26,17.06-2.41,35.84-2.97,61.16,18.43,16.36,13.82,23.34,34.12,30.1,53.75,2.79,8.12,5.68,16.51,9.17,24.18,3.09,6.78,6.91,13.53,10.61,20.05,7.07,12.46,14.37,25.35,17.51,39.88,3.8,17.61,2.56,39.02-3.32,57.28Z"/>
    <path class="cls-1" d="M910.98,929.95l-9.89-1.47c4.68-31.41-4.37-64.98-24.2-89.79-2.02-2.53-4.22-5.06-6.35-7.51-5-5.76-10.18-11.72-14.07-18.7-3.38-6.07-5.59-12.54-7.73-18.81-1.63-4.78-3.17-9.29-5.18-13.61-6.68-14.34-18.05-25.56-30.08-37.43-3.51-3.46-7.14-7.05-10.6-10.67-20.32-21.31-29.47-41.94-27.19-61.31,1.91-16.19,12.04-29.88,25.95-35.17,11.18-9.87,25.03-21.85,42.16-25.12,8.96-1.71,17.82-.9,26.39-.12,8.98.82,18.26,1.66,27.26,4.6,9.31,3.03,17.65,8.1,25.71,13,9.43,5.73,18.33,11.14,28.33,13.26,4.51.96,9.17,1.22,14.11,1.5,3.65.21,7.42.42,11.19.93,31.5,4.31,58.38,31.33,62.51,62.85,2.07,15.78-1.17,31.86-4.03,46.04l-23.53,116.69c-1.44,7.14-4.91,17.15-8.27,26.84-3.35,9.67-6.81,19.67-7.89,25.79l-9.85-1.73c1.22-6.91,4.65-16.83,8.29-27.33,3.25-9.38,6.61-19.07,7.91-25.55l23.53-116.69c2.84-14.08,5.77-28.63,3.92-42.77-3.57-27.21-26.76-50.53-53.95-54.24-3.38-.46-6.79-.65-10.4-.86-5.09-.29-10.36-.58-15.62-1.7-11.67-2.47-21.73-8.58-31.46-14.5-7.92-4.82-15.41-9.36-23.61-12.04-7.93-2.58-16.64-3.38-25.07-4.15-7.88-.72-16.03-1.46-23.61-.01-14.81,2.83-27.2,13.77-38.13,23.42l-.74.65-.93.32c-10.8,3.76-18.76,14.46-20.26,27.24-1.91,16.27,6.33,34.18,24.5,53.24,3.35,3.52,6.93,7.05,10.39,10.46,12.13,11.98,24.68,24.36,32.12,40.33,2.24,4.8,3.94,9.78,5.58,14.6,2.08,6.11,4.05,11.89,7,17.17,3.39,6.08,8,11.39,12.88,17.01,2.19,2.52,4.46,5.13,6.61,7.82,21.53,26.94,31.36,63.39,26.28,97.5Z"/>
    <path class="cls-1" d="M1158.17,728.41c-.56,0-1.13-.07-1.69-.22-11.83-3.15-21.64-20.8-31.12-37.88-4.92-8.85-9.56-17.22-13.37-21.27-5.73-6.1-6.46-17.76-7.16-29.04-.42-6.72-.85-13.66-2.35-17.24-3.93-9.32-6.62-18.52-9.22-27.41-5.91-20.22-11.02-37.68-28.48-49.86-7.36-5.13-62.49-22.76-84.23-26.71,9.21,6.2,27.65,14.87,36.75,19.15,2.1.99,4.11,1.93,5.99,2.82l1.61.76c11.59,5.49,24.46,11.82,30.45,17.49,22.97,21.74,15.9,50.27,4.84,77.87-1.48,3.68-3.18,7.54-6.25,10.63-6.81,6.85-17.5,6.93-25.09,3.98-7.08-2.75-12.66-7.78-18.23-13.13-3.89-3.73-6.6-7.51-8.27-11.53-.71.02-1.78.17-2.56.27-5.44.72-16.75,2.22-21.75-14.37-3.55-11.76-22.25-20.86-33.21-23.84-14.28-3.88-14.04-20.15-13.84-34.51.12-8.46.25-17.14-2.37-22.42-.16.74-.33,1.49-.48,2.19-3.03,14.02-6.16,25.94-13.74,29.79-6.72,3.42-19.52,24.18-26.02,36.46-.02.03-.03.06-.05.09-1.62,2.92-4.71,4.74-8.05,4.75h-.02c-3.33,0-6.41-1.81-8.04-4.72-7.09-12.65-15.48-30.39-15.26-43.12v-.27c.02-.93.06-2.66-.21-3.06h0s-.11-.11-.46-.25c-.72-.29-1.69-.24-2.66.13l-30.67,11.7c-5.59,2.13-11.38,4.34-15.4,8.27-5.32,5.19-7.34,13-9.48,21.28-.89,3.46-1.82,7.04-3.02,10.5-4.73,13.67-13.98,25.59-26.04,33.57-6.27,4.14-11.73,5.34-16.69,3.66-3.77-1.28-6.4-4.08-8.33-6.12-21.73-23.07-42.83-48.17-41.46-78.81.31-7.03,2.37-20.05,12.6-28.22,6.01-4.79,13.14-6.58,20.03-8.31,2.67-.67,5.18-1.3,7.6-2.09,18.02-5.89,31.87-22.47,34.47-41.25.42-3.03.57-6.11.73-9.36.21-4.27.43-8.69,1.3-13.14,3.48-17.87,16.53-31.88,27.02-43.13,15.09-16.2,31.87-30.8,52.28-27.91,15.22,2.15,25.65,13.3,35.74,24.08,8.95,9.57,17.41,18.61,28.55,21.02,7.07,1.53,14.92.15,22.52-1.19l2.84-.5c11.23-1.96,22.84-3.99,33.04-8.6,11.65-5.27,20.1-13.71,23.19-23.17,3.17-9.71,1.11-20.91-.71-30.79l-6.64-36.15c-1.27-6.89-2.48-9.94-6.75-10.95-4.45-1.05-9.37.73-12.53,4.54-1.47,1.77-3,3.57-4.55,5.39-9.97,11.7-20.28,23.79-21.49,37.96-.08.93-.14,1.89-.21,2.87-.54,8.08-1.35,20.3-13.14,22.28-3.17.53-6.53.03-9.73-1.47-17.6-8.23-33.22-16.02-46.11-28.13-14.32-13.46-22.37-30.56-22.09-46.92.23-13.57,7.33-24.46,14.85-35.98,7.93-12.16,16.13-24.74,16.67-41.61l9.99.32c-.62,19.67-10,34.06-18.28,46.76-7,10.73-13.04,20-13.22,30.69-.23,13.55,6.68,27.93,18.94,39.46,11.81,11.1,26.68,18.5,43.49,26.36.94.44,2.37.91,3.84.67,3.42-.58,4.25-4.5,4.82-13.08.07-1.04.14-2.07.22-3.05,1.48-17.36,13.36-31.3,23.84-43.6,1.52-1.78,3.02-3.54,4.46-5.28,5.57-6.72,14.41-9.82,22.53-7.89,11.31,2.68,13.17,12.82,14.28,18.87l6.64,36.15c1.93,10.51,4.33,23.58.38,35.7-3.96,12.12-14.37,22.76-28.57,29.18-11.36,5.14-23.6,7.27-35.44,9.34l-2.82.49c-8.55,1.5-17.39,3.05-26.37,1.11-14.19-3.08-24.13-13.69-33.74-23.96-9.31-9.95-18.1-19.35-29.83-21.01-15.87-2.24-30.32,10.6-43.57,24.82-9.62,10.32-21.58,23.17-24.52,38.22-.73,3.74-.92,7.62-1.12,11.72-.17,3.33-.34,6.78-.82,10.24-3.11,22.48-19.7,42.33-41.27,49.38-2.76.9-5.56,1.6-8.28,2.29-6.13,1.53-11.91,2.98-16.22,6.42-5.22,4.16-8.44,11.76-8.85,20.85-1.2,26.75,18.49,49.99,38.75,71.51,1.34,1.42,2.85,3.03,4.26,3.51,1.79.61,4.54-.27,7.96-2.53,10.24-6.77,18.09-16.89,22.1-28.49,1.07-3.08,1.9-6.31,2.79-9.73,2.39-9.24,4.86-18.8,12.18-25.94,5.51-5.37,12.58-8.07,18.82-10.45l30.67-11.7c3.33-1.27,6.86-1.3,9.93-.07,7.15,2.85,7.02,9.56,6.96,12.78v.26c-.15,7.86,4.69,21.23,13.28,36.81,4.29-7.97,18.85-33.89,29.61-39.36,3.96-2.01,7.14-16.71,8.5-22.99,1.8-8.32,2.55-11.76,5.71-13.32,1.5-.74,3.23-.76,4.75-.04,12.6,5.95,12.37,21.84,12.16,35.85-.2,13.81.14,23,6.46,24.71,11.65,3.16,35.04,13.63,40.16,30.6,2.55,8.44,5.5,8.05,10.86,7.34,3.61-.48,10.33-1.37,12.95,5.4,1.11,2.87,3.11,5.67,6.13,8.56,4.99,4.8,9.56,8.94,14.93,11.02,4.4,1.71,10.77,1.91,14.37-1.71,1.75-1.76,2.92-4.46,4.06-7.3,11.27-28.1,15.17-50.23-2.43-66.88-5.34-5.06-20.55-12.26-27.86-15.72l-1.63-.77c-1.87-.89-3.87-1.83-5.95-2.81-36.4-17.12-49.07-24.77-47.67-33.62.32-2.04,1.67-3.7,3.69-4.56,1.86-.79,7.53-3.21,51.36,10.04,20.07,6.07,44.3,14.43,50.07,18.45,20.35,14.19,26.18,34.14,32.36,55.25,2.52,8.62,5.13,17.54,8.83,26.33,2.17,5.14,2.63,12.6,3.12,20.5.54,8.62,1.2,19.34,4.47,22.81,4.65,4.95,9.59,13.84,14.82,23.26,6.58,11.85,15.37,27.67,22.7,32.08,1.7-4.58,3.55-15.68,5.08-24.87,3.83-23.01,8.17-49.08,18.65-59.37,4.82-4.73,12.77-1.6,21.2,1.71,3.03,1.19,7.58,2.98,9.12,2.98.04,0,.07,0,.1,0,4.17-.48,7.73-1.75,11.17-2.99,6.6-2.37,13.42-4.81,22.45-.78l-4.07,9.13c-5.36-2.39-9.2-1.02-15.01,1.06-3.8,1.36-8.1,2.9-13.44,3.51-3.74.42-8.49-1.44-13.99-3.6-3.14-1.23-8.87-3.48-10.97-3.43-7.88,8.51-12.19,34.42-15.36,53.43-3.44,20.66-5.16,29.93-9.96,33.02-1.11.72-2.35,1.08-3.61,1.08Z"/>
    <path class="cls-1" d="M470.86,1263.62c-6.14,0-11.4-4.37-12.58-10.4-6.77-34.61-26.81-68.64-47.78-95.91-23.06-29.99-50.83-56.27-72.24-87.45-66.13-96.27-62.12-226.66-22.59-336.57,4.65-12.92,10.02-26.12,19.96-35.6,9.94-9.48,25.64-14.24,37.75-7.77,10.52,5.63,18.55,17.31,18.89,29.23,2.3,81.99-20.7,165.65,25.97,249.99,18.68,33.75,54.97,58.93,87.61,82.97,2.1,1.54,4.68-1.16,3.04-3.18-39.97-49.26-57.27-116.68-44.69-178.98,1.03-5.1,2.36-10.39,5.85-14.25,7.96-8.8,23.43-5.47,31.4,3.32s10.69,20.96,14.01,32.36c11.41,39.11,33.47,75.07,63.18,102.95,18.24,17.13,39.58,31.61,53.21,52.59,12.51,19.25,17.43,42.36,21.24,65,7.63,45.4,11.75,91.4,12.31,137.44.09,7.05-5.59,12.83-12.64,12.88-70.97.54-117.07,1.46-181.9,1.37Z"/>
    <rect class="cls-1" x="462.56" y="1303.15" width="202.84" height="95.33" rx="10.78" ry="10.78"/>
    <path class="cls-1" d="M1303.57,1263.62c6.14,0,11.4-4.37,12.58-10.4,6.77-34.61,26.81-68.64,47.78-95.91,23.06-29.99,50.83-56.27,72.24-87.45,66.13-96.27,62.12-226.66,22.59-336.57-4.65-12.92-10.02-26.12-19.96-35.6-9.94-9.48-25.64-14.24-37.75-7.77-10.52,5.63-18.55,17.31-18.89,29.23-2.3,81.99,20.7,165.65-25.97,249.99-18.68,33.75-54.97,58.93-87.61,82.97-2.1,1.54-4.68-1.16-3.04-3.18,39.97-49.26,57.27-116.68,44.69-178.98-1.03-5.1-2.36-10.39-5.85-14.25-7.96-8.8-23.43-5.47-31.4,3.32-7.97,8.79-10.69,20.96-14.01,32.36-11.41,39.11-33.47,75.07-63.18,102.95-18.24,17.13-39.58,31.61-53.21,52.59-12.51,19.25-17.43,42.36-21.24,65-7.63,45.4-11.75,91.4-12.31,137.44-.09,7.05,5.59,12.83,12.64,12.88,70.97.54,117.07,1.46,181.9,1.37Z"/>
    <rect class="cls-1" x="1109.03" y="1303.15" width="202.84" height="95.33" rx="10.78" ry="10.78" transform="translate(2420.89 2701.64) rotate(-180)"/>
  </g>
</svg>