<?xml version="1.0" encoding="UTF-8"?>
<svg id="Layer_2" data-name="Layer 2" xmlns="http://www.w3.org/2000/svg" viewBox="0 0 1830 1174">
  <defs>
    <style>
      .cls-1 {
        fill: #442f2a;
      }
    </style>
  </defs>
  <g id="Layer_1-2" data-name="Layer 1">
    <path class="cls-1" d="M1795,1174H35c-19.3,0-35-15.7-35-35V35C0,15.7,15.7,0,35,0h1760c19.3,0,35,15.7,35,35v1104c0,19.3-15.7,35-35,35ZM35,30c-2.76,0-5,2.24-5,5v1104c0,2.76,2.24,5,5,5h1760c2.76,0,5-2.24,5-5V35c0-2.76-2.24-5-5-5H35Z"/>
    <rect class="cls-1" x="25.75" y="127" width="1789.25" height="30"/>
  </g>
  <g id="Layer_2-2" data-name="Layer 2">
    <path class="cls-1" d="M778.64,1070c-.71,0-1.44-.08-2.16-.24-4.58-1.01-7.85-5.07-7.85-9.77v-376.66l-327.24,102.59c-3.84,1.2-8.02,0-10.62-3.08-2.6-3.07-3.11-7.4-1.29-10.98L703.01,231.94c2.09-4.13,6.74-6.28,11.24-5.21,4.5,1.08,7.68,5.1,7.68,9.73v354.96l316.53-108.11c3.79-1.29,7.99-.2,10.67,2.77,2.68,2.98,3.32,7.26,1.64,10.9l-263.05,567.22c-1.66,3.59-5.24,5.79-9.07,5.79ZM778.63,659.72c2.1,0,4.18.66,5.92,1.94,2.57,1.88,4.08,4.88,4.08,8.06v344.95l234.13-504.86-307.61,105.07c-3.06,1.04-6.42.55-9.05-1.33-2.62-1.88-4.18-4.91-4.18-8.13v-327.08l-243.88,481.42,317.6-99.57c.98-.31,1.99-.46,2.99-.46Z"/>
    <path class="cls-1" d="M1348.79,425.19h-200.38c-8.28,0-15-6.72-15-15s6.72-15,15-15h200.38c8.28,0,15,6.72,15,15s-6.72,15-15,15Z"/>
    <path class="cls-1" d="M1248.6,525.38c-8.28,0-15-6.72-15-15v-200.38c0-8.28,6.72-15,15-15s15,6.72,15,15v200.38c0,8.28-6.72,15-15,15Z"/>
    <path class="cls-1" d="M1409.87,621.53h-138.94c-8.28,0-15-6.72-15-15s6.72-15,15-15h138.94c8.28,0,15,6.72,15,15s-6.72,15-15,15Z"/>
    <path class="cls-1" d="M1340.4,691c-8.28,0-15-6.72-15-15v-138.94c0-8.28,6.72-15,15-15s15,6.72,15,15v138.94c0,8.28-6.72,15-15,15Z"/>
  </g>
</svg>