<?xml version="1.0" encoding="UTF-8"?>
<svg id="Layer_2" data-name="Layer 2" xmlns="http://www.w3.org/2000/svg" viewBox="0 0 1687.67 1085">
  <defs>
    <style>
      .cls-1 {
        fill: #f6ece3;
      }
    </style>
  </defs>
  <g id="Layer_1-2" data-name="Layer 1">
    <path class="cls-1" d="M1062.83,363.33h-438c-18.01,0-32.67-14.65-32.67-32.67V32.67c0-18.01,14.65-32.67,32.67-32.67h438c18.01,0,32.67,14.65,32.67,32.67v298c0,18.01-14.65,32.67-32.67,32.67ZM624.83,25c-4.23,0-7.67,3.44-7.67,7.67v298c0,4.23,3.44,7.67,7.67,7.67h438c4.23,0,7.67-3.44,7.67-7.67V32.67c0-4.23-3.44-7.67-7.67-7.67h-438Z"/>
    <path class="cls-1" d="M1062.83,1085h-438c-18.01,0-32.67-14.65-32.67-32.67v-298c0-18.01,14.65-32.67,32.67-32.67h438c18.01,0,32.67,14.65,32.67,32.67v298c0,18.01-14.65,32.67-32.67,32.67ZM624.83,746.67c-4.23,0-7.67,3.44-7.67,7.67v298c0,4.23,3.44,7.67,7.67,7.67h438c4.23,0,7.67-3.44,7.67-7.67v-298c0-4.23-3.44-7.67-7.67-7.67h-438Z"/>
    <path class="cls-1" d="M470.67,1085H32.67c-18.01,0-32.67-14.65-32.67-32.67v-298c0-18.01,14.65-32.67,32.67-32.67h438c18.01,0,32.67,14.65,32.67,32.67v298c0,18.01-14.65,32.67-32.67,32.67ZM32.67,746.67c-4.23,0-7.67,3.44-7.67,7.67v298c0,4.23,3.44,7.67,7.67,7.67h438c4.23,0,7.67-3.44,7.67-7.67v-298c0-4.23-3.44-7.67-7.67-7.67H32.67Z"/>
    <path class="cls-1" d="M1655,1085h-438c-18.01,0-32.67-14.65-32.67-32.67v-298c0-18.01,14.65-32.67,32.67-32.67h438c18.01,0,32.67,14.65,32.67,32.67v298c0,18.01-14.65,32.67-32.67,32.67ZM1217,746.67c-4.23,0-7.67,3.44-7.67,7.67v298c0,4.23,3.44,7.67,7.67,7.67h438c4.23,0,7.67-3.44,7.67-7.67v-298c0-4.23-3.44-7.67-7.67-7.67h-438Z"/>
    <rect class="cls-1" x="831.33" y="342" width="25" height="401"/>
    <path class="cls-1" d="M1436,746.67c-6.9,0-12.5-5.6-12.5-12.5v-171.36c0-4.3-3.5-7.81-7.81-7.81H272.12c-4.39,0-7.96,3.57-7.96,7.96v171.21c0,6.9-5.6,12.5-12.5,12.5s-12.5-5.6-12.5-12.5v-171.21c0-18.17,14.78-32.96,32.96-32.96h1143.57c18.09,0,32.81,14.72,32.81,32.81v171.36c0,6.9-5.6,12.5-12.5,12.5Z"/>
  </g>
</svg>