<?xml version="1.0" encoding="UTF-8"?>
<svg id="Layer_2" data-name="Layer 2" xmlns="http://www.w3.org/2000/svg" viewBox="0 0 1822 1822">
  <defs>
    <style>
      .cls-1 {
        fill: #442f2a;
      }
    </style>
  </defs>
  <g id="Layer_1-2" data-name="Layer 1">
    <path class="cls-1" d="M911,40c59.12,0,118.2,5.95,175.58,17.7,55.9,11.44,110.89,28.51,163.44,50.73,51.6,21.83,101.37,48.84,147.94,80.3,46.13,31.16,89.51,66.96,128.93,106.38,39.42,39.42,75.22,82.8,106.38,128.93,31.46,46.56,58.47,96.33,80.3,147.94,22.23,52.55,39.3,107.54,50.73,163.44,11.74,57.38,17.7,116.46,17.7,175.58s-5.95,118.2-17.7,175.58c-11.44,55.9-28.51,110.89-50.73,163.44-21.83,51.6-48.84,101.37-80.3,147.94-31.16,46.13-66.96,89.51-106.38,128.93s-82.8,75.22-128.93,106.38c-46.56,31.46-96.33,58.47-147.94,80.3-52.55,22.23-107.54,39.3-163.44,50.73-57.38,11.74-116.46,17.7-175.58,17.7s-118.2-5.95-175.58-17.7c-55.9-11.44-110.89-28.51-163.44-50.73-51.6-21.83-101.37-48.84-147.94-80.3-46.13-31.16-89.51-66.96-128.93-106.38-39.42-39.42-75.22-82.8-106.38-128.93-31.46-46.56-58.47-96.33-80.3-147.94-22.23-52.55-39.29-107.54-50.73-163.44-11.74-57.38-17.7-116.46-17.7-175.58s5.95-118.2,17.7-175.58c11.44-55.9,28.51-110.89,50.73-163.44,21.83-51.6,48.84-101.37,80.3-147.94,31.16-46.13,66.96-89.51,106.38-128.93,39.42-39.42,82.8-75.22,128.93-106.38,46.56-31.46,96.33-58.47,147.94-80.3,52.55-22.23,107.54-39.29,163.44-50.73,57.38-11.74,116.46-17.7,175.58-17.7M911,0C407.87,0,0,407.87,0,911s407.87,911,911,911,911-407.87,911-911S1414.13,0,911,0h0Z"/>
    <rect class="cls-1" x="909.06" y="-21.39" width="40" height="1801.27" transform="translate(-349.6 914.47) rotate(-45)"/>
  </g>
</svg>