<?xml version="1.0" encoding="UTF-8"?>
<svg id="Layer_2" data-name="Layer 2" xmlns="http://www.w3.org/2000/svg" viewBox="0 0 1523.48 1694.43">
  <defs>
    <style>
      .cls-1 {
        fill: #442f2a;
      }
    </style>
  </defs>
  <g id="Layer_1-2" data-name="Layer 1">
    <path class="cls-1" d="M1510.98,503.35c-6.9,0-12.5-5.6-12.5-12.5V32.5c0-4.14-3.36-7.5-7.5-7.5H32.5c-4.14,0-7.5,3.36-7.5,7.5v458.35c0,6.9-5.6,12.5-12.5,12.5s-12.5-5.6-12.5-12.5V32.5C0,14.58,14.58,0,32.5,0h1458.48c17.92,0,32.5,14.58,32.5,32.5v458.35c0,6.9-5.6,12.5-12.5,12.5Z"/>
    <path class="cls-1" d="M1490.98,1694.43H32.5c-17.92,0-32.5-14.58-32.5-32.5v-458.35c0-6.9,5.6-12.5,12.5-12.5s12.5,5.6,12.5,12.5v458.35c0,4.14,3.36,7.5,7.5,7.5h1458.48c4.14,0,7.5-3.36,7.5-7.5v-458.35c0-6.9,5.6-12.5,12.5-12.5s12.5,5.6,12.5,12.5v458.35c0,17.92-14.58,32.5-32.5,32.5Z"/>
    <g>
      <path class="cls-1" d="M485.74,948.73c0,44.61-16.97,79.92-50.88,105.94-33.92,26.03-75.04,39.03-123.36,39.03-32.53,0-59.36-8.25-80.5-24.74-21.15-16.49-32.88-30.55-35.2-42.17,5.11-15.33,16.03-32.52,32.76-51.58,16.73-19.05,31.82-30.67,45.3-34.85,23.7,15.33,45.76,49.48,66.21,102.45,30.2-.92,45.3-17.42,45.3-49.48,0-17.65-7.09-39.38-21.26-65.17-14.18-25.79-29.62-49.94-46.35-72.48-16.73-22.53-32.18-47.85-46.35-75.97-14.18-28.11-21.26-53.08-21.26-74.92,0-35.31,14.29-63.18,42.86-83.64,28.58-20.44,60.75-30.67,96.53-30.67s63.53,7.67,83.29,23c19.74,15.33,29.62,32.76,29.62,52.27s-7.44,39.5-22.3,59.94c-14.88,20.45-29.74,36.71-44.61,48.79l-22.3,18.12c5.58,7.44,12.31,16.97,20.21,28.58,7.9,11.62,18.58,31.36,32.06,59.24,13.47,27.88,20.21,50.65,20.21,68.3ZM432.43,720.13c6.27-6.03,11.96-13.35,17.08-21.95,5.11-8.59,7.67-17.65,7.67-27.18s-5.58-17.53-16.73-24.05c-11.15-6.5-24.51-9.76-40.08-9.76s-28.58,3.6-39.03,10.8c-10.45,7.21-15.68,15.8-15.68,25.79s3.37,21.61,10.11,34.85c6.73,13.24,13.35,24.29,19.86,33.11l10.45,13.24c4.64-2.32,11.96-7.2,21.96-14.64,9.99-7.43,18.12-14.17,24.39-20.21Z"/>
      <path class="cls-1" d="M600.39,1067.57c-14.18-17.42-21.26-38.91-21.26-64.47s3.25-70.62,9.76-135.21c6.5-64.58,9.76-110.58,9.76-138s-3.03-48.79-9.06-64.12l-28.58-52.97,2.79-10.45c37.64-7.9,84.33-11.85,140.09-11.85,4.64,17.66,6.97,44.85,6.97,81.55s-4.53,90.03-13.59,159.95c-9.06,69.94-13.59,116.39-13.59,139.39s7.2,34.5,21.61,34.5,32.87-12.31,55.41-36.94c22.53-24.62,44.02-57.03,64.47-97.23,20.44-40.18,32.99-78.87,37.64-116.05l-73.88-43.21c3.71-35.31,12.31-63.42,25.79-84.33,12.08-18.58,22.06-30.43,29.97-35.55l4.88-3.48c28.34,0,49.83,7.44,64.47,22.3,14.64,14.88,21.96,32.53,21.96,52.97,0,50.65-15.1,109.89-45.3,177.73-30.21,67.85-67.85,126.74-112.91,176.68-45.07,49.95-86.66,74.92-124.76,74.92-20.91,0-38.45-8.71-52.62-26.14Z"/>
      <path class="cls-1" d="M1063.52,1241.46c-23.24,0-42.52-5.7-57.85-17.08-15.33-11.39-23-27.07-23-47.05,0-53.44,54.59-88.52,163.79-105.24,4.18-15.33,7.43-30.2,9.76-44.61-21.38,13.01-43.91,19.52-67.61,19.52-43.21,0-78.06-15.68-104.55-47.05-26.48-31.36-39.73-72.14-39.73-122.32s9.76-96.64,29.27-139.39c19.51-42.74,47.5-78.06,83.98-105.94,36.47-27.88,75.27-41.82,116.39-41.82s74.8,10.11,101.06,30.32c26.25,20.21,39.38,45.89,39.38,77.02,0,18.59-3.26,33.69-9.76,45.3-3.72.47-8.83.7-15.33.7-35.79,0-62.73-5.8-80.85-17.42l.7-75.27c-11.15-9.76-25.79-14.64-43.91-14.64-28.35,0-53.44,21.73-75.27,65.17-21.85,43.45-32.76,96.3-32.76,158.56,0,41.36,6.73,71.79,20.21,91.3,13.47,19.52,29.5,29.27,48.09,29.27,27.88,0,52.97-13.94,75.27-41.82,22.3-27.88,38.33-61.09,48.09-99.67l37.64,6.27c-17.66,132.89-44.38,232.09-80.15,297.61-35.79,65.51-83.41,98.27-142.88,98.27ZM1027.98,1175.25c0,13,10.91,19.52,32.76,19.52,11.15,0,24.39-6.86,39.73-20.56,15.33-13.71,26.94-31.48,34.85-53.32-26.95,2.32-51.58,8.47-73.88,18.47-22.3,9.99-33.46,21.95-33.46,35.89Z"/>
    </g>
  </g>
</svg>