<?xml version="1.0" encoding="UTF-8"?>
<svg id="Layer_2" data-name="Layer 2" xmlns="http://www.w3.org/2000/svg" viewBox="0 0 1634.41 1249.54">
  <defs>
    <style>
      .cls-1 {
        fill: #442f2a;
      }
    </style>
  </defs>
  <g id="Layer_1-2" data-name="Layer 1">
    <path class="cls-1" d="M1301.67,593.95c107.38,0,194.43,87.05,194.43,194.43s-87.05,194.43-194.43,194.43-194.43-87.05-194.43-194.43,87.05-194.43,194.43-194.43M1301.67,582.63c-27.77,0-54.72,5.44-80.09,16.17-24.5,10.36-46.51,25.2-65.4,44.09-18.89,18.89-33.73,40.9-44.09,65.4-10.73,25.37-16.17,52.32-16.17,80.09s5.44,54.72,16.17,80.09c10.36,24.5,25.2,46.51,44.09,65.4,18.89,18.89,40.9,33.73,65.4,44.09,25.37,10.73,52.32,16.17,80.09,16.17s54.72-5.44,80.09-16.17c24.5-10.36,46.51-25.2,65.4-44.09,18.89-18.89,33.73-40.9,44.09-65.4,10.73-25.37,16.17-52.32,16.17-80.09s-5.44-54.72-16.17-80.09c-10.36-24.5-25.2-46.51-44.09-65.4-18.89-18.89-40.9-33.73-65.4-44.09-25.37-10.73-52.32-16.17-80.09-16.17h0Z"/>
    <path class="cls-1" d="M1107.48,804.17l-1.2-5.53c3.98-.86,7.48-4.57,10.39-11.02.44-.98.87-1.98,1.3-2.98,2.1-4.92,4.27-10,8.55-13.72,2.55-2.22,5.49-3.62,8.34-4.98,2.2-1.05,4.29-2.04,6.08-3.36,4.9-3.58,7.77-9.68,10.31-15.06,3.22-6.83,6.88-14.58,6.52-22.37-.76-16.43-11.75-38.88-19.3-47.74l4.31-3.67c9.14,10.73,19.87,34.38,20.65,51.15.42,9.2-3.72,17.98-7.05,25.05-2.69,5.7-6.03,12.79-12.09,17.22-2.22,1.63-4.65,2.78-6.99,3.9-2.62,1.25-5.09,2.42-7.05,4.14-3.3,2.87-5.12,7.15-7.06,11.67-.44,1.04-.89,2.07-1.35,3.09-3.69,8.17-8.52,12.95-14.35,14.22Z"/>
    <path class="cls-1" d="M1176.93,700.56c-.31,0-.62,0-.93-.03-6.57-.43-7.32-5.28-7.71-7.89-.12-.81-.26-1.72-.5-2.1-.21-.34-.62-.69-1.08-1.09-1.41-1.22-3.77-3.25-3.08-7.85,1.58-10.48,10.54-30.12,21.32-28.75,2.37.3,4.38,1.44,5.81,3.31,2.38,3.1,2.54,7.38,2.29,9.21-.17,1.23-.47,2.37-.76,3.46-.24.9-.46,1.76-.59,2.58-.35,2.27-.05,4.7.28,7.28.41,3.25.84,6.61,0,10.08-1.63,6.77-8.13,11.8-15.05,11.8ZM1183.88,658.45c-5.04,0-12.97,12.87-14.65,24-.23,1.5.01,1.71,1.18,2.71.68.59,1.53,1.32,2.2,2.39.85,1.36,1.08,2.89,1.28,4.23.4,2.63.53,2.97,2.49,3.09,4.52.29,9.05-3.04,10.11-7.44.59-2.46.25-5.17-.12-8.04-.36-2.85-.74-5.81-.26-8.86.17-1.11.45-2.15.71-3.15.26-.98.5-1.9.62-2.78.14-1.03-.06-3.55-1.17-5-.51-.66-1.15-1.02-2.03-1.14h0c-.12-.01-.24-.02-.36-.02Z"/>
    <path class="cls-1" d="M1212.3,708.34c-.7,0-1.42-.13-2.12-.39-3.41-1.26-5.75-5.35-5.49-9.58-.12-3.02,1.01-5.6,2.01-7.89,1.26-2.88,1.94-4.61,1.09-6.54l-.12-.28-.06-.3c-1.04-5.19,1.4-9.96,3.55-14.17,1.97-3.85,3.83-7.49,2.82-10.75-.52-1.7-1.83-3.24-3.22-4.88-.91-1.07-1.85-2.18-2.67-3.44-3.26-4.79-3.86-11.05-1.59-16.75,2.25-5.65,6.93-9.77,12.53-11.05,5.18-1.81,17.72-5.2,26.09.82,4.74,3.41,7.1,9.04,6.99,16.73.43,8.94-.82,21.37-9.21,30.03l-.29.26c-4.92,3.84-7.44,9.27-9.43,14.57l-.08.2c-3.7,7.94-9.86,14.53-15.33,20.35-1.49,1.99-3.44,3.05-5.46,3.05ZM1213.11,681.99c1.67,4.16.07,7.81-1.22,10.76-.84,1.92-1.64,3.74-1.54,5.48v.2s0,.19,0,.19c-.16,1.99.95,3.71,1.79,4.01.39.14.89-.45,1.16-.82l.23-.28c5.43-5.78,11.05-11.76,14.39-18.89,2.15-5.71,5.15-12.14,11.05-16.81,6.89-7.23,7.88-17.99,7.49-25.77v-.09s0-.09,0-.09c.1-5.77-1.46-9.86-4.63-12.13-4.36-3.14-12.23-3.14-21.06-.02l-.35.1c-3.83.83-7.07,3.69-8.64,7.65-1.58,3.96-1.2,8.25,1.02,11.49l.04.06c.63.97,1.42,1.9,2.26,2.89,1.62,1.91,3.45,4.07,4.31,6.87,1.68,5.46-.91,10.53-3.19,14.99-1.85,3.62-3.6,7.04-3.08,10.22Z"/>
    <path class="cls-1" d="M1207.17,959.67l-5.39-1.74c2.99-9.29,3.66-20.59,1.74-29.5-1.59-7.39-5.34-13.99-9.3-20.99-2.15-3.8-4.38-7.73-6.23-11.8-2.09-4.59-3.77-9.47-5.4-14.2-3.74-10.87-7.27-21.13-15.34-27.95-12.56-10.62-21.45-10.39-30.19-9.15-1.87.26-4.62.5-7.54.75-4.8.41-10.76.92-13.44,1.65l-1.49-5.46c3.17-.87,9.16-1.38,14.45-1.83,2.84-.24,5.52-.47,7.23-.72,9.66-1.37,20.3-1.68,34.63,10.43,9.26,7.83,13.22,19.32,17.04,30.44,1.58,4.6,3.22,9.35,5.19,13.69,1.75,3.84,3.91,7.66,6.01,11.35,4,7.06,8.14,14.35,9.91,22.58,2.15,9.97,1.45,22.1-1.88,32.43Z"/>
    <path class="cls-1" d="M1308.01,984.23l-5.6-.83c2.65-17.79-2.47-36.8-13.7-50.84-1.14-1.43-2.39-2.86-3.59-4.25-2.83-3.26-5.76-6.63-7.97-10.59-1.91-3.43-3.17-7.1-4.37-10.65-.92-2.71-1.79-5.26-2.93-7.7-3.78-8.12-10.22-14.47-17.03-21.2-1.99-1.96-4.04-3.99-6-6.04-11.51-12.07-16.69-23.75-15.4-34.71,1.08-9.17,6.82-16.92,14.69-19.91,6.33-5.59,14.17-12.37,23.87-14.22,5.08-.97,10.09-.51,14.94-.07,5.08.46,10.34.94,15.43,2.6,5.27,1.72,9.99,4.59,14.56,7.36,5.34,3.24,10.38,6.31,16.04,7.51,2.55.54,5.19.69,7.99.85,2.07.12,4.2.24,6.34.53,17.84,2.44,33.06,17.74,35.4,35.59,1.17,8.94-.66,18.04-2.28,26.07l-13.33,66.07c-.82,4.04-2.78,9.71-4.68,15.2-1.9,5.47-3.86,11.14-4.47,14.6l-5.58-.98c.69-3.92,2.63-9.53,4.69-15.48,1.84-5.31,3.74-10.8,4.48-14.47l13.33-66.07c1.61-7.97,3.27-16.21,2.22-24.22-2.02-15.41-15.15-28.61-30.55-30.72-1.91-.26-3.84-.37-5.89-.49-2.88-.16-5.87-.33-8.84-.96-6.61-1.4-12.3-4.86-17.81-8.21-4.49-2.73-8.72-5.3-13.37-6.82-4.49-1.46-9.42-1.91-14.19-2.35-4.46-.41-9.07-.83-13.37,0-8.38,1.6-15.4,7.79-21.59,13.26l-.42.37-.53.18c-6.12,2.13-10.62,8.19-11.47,15.43-1.08,9.21,3.58,19.36,13.87,30.15,1.9,1.99,3.92,3.99,5.88,5.92,6.87,6.78,13.98,13.79,18.19,22.84,1.27,2.72,2.23,5.54,3.16,8.27,1.18,3.46,2.3,6.73,3.96,9.72,1.92,3.44,4.53,6.45,7.3,9.63,1.24,1.43,2.52,2.91,3.74,4.43,12.19,15.26,17.76,35.9,14.88,55.21Z"/>
    <path class="cls-1" d="M1447.98,870.11c-.32,0-.64-.04-.96-.13-6.7-1.78-12.25-11.78-17.62-21.45-2.79-5.01-5.42-9.75-7.57-12.04-3.25-3.46-3.66-10.06-4.05-16.44-.24-3.8-.48-7.74-1.33-9.76-2.22-5.28-3.75-10.48-5.22-15.52-3.35-11.45-6.24-21.34-16.13-28.23-4.17-2.91-35.38-12.89-47.7-15.12,5.22,3.51,15.65,8.42,20.81,10.84,1.19.56,2.33,1.09,3.39,1.6l.91.43c6.56,3.11,13.85,6.69,17.24,9.91,13.01,12.31,9,28.47,2.74,44.09-.84,2.09-1.8,4.27-3.54,6.02-3.86,3.88-9.91,3.93-14.21,2.26-4.01-1.56-7.17-4.41-10.32-7.43-2.2-2.11-3.74-4.25-4.68-6.53-.4.01-1.01.09-1.45.15-3.08.41-9.48,1.26-12.32-8.13-2.01-6.66-12.6-11.81-18.8-13.5-8.09-2.2-7.95-11.41-7.84-19.54.07-4.79.14-9.7-1.34-12.7-.09.42-.18.84-.27,1.24-1.72,7.94-3.49,14.69-7.78,16.87-3.8,1.93-11.05,13.69-14.73,20.65,0,.02-.02.04-.03.05-.92,1.65-2.67,2.69-4.56,2.69h0c-1.89,0-3.63-1.02-4.55-2.67-4.01-7.16-8.77-17.21-8.64-24.42v-.15c.01-.53.03-1.51-.12-1.73h0s-.06-.06-.26-.14c-.41-.16-.96-.14-1.51.07l-17.37,6.63c-3.17,1.21-6.44,2.46-8.72,4.68-3.01,2.94-4.16,7.36-5.37,12.05-.51,1.96-1.03,3.99-1.71,5.94-2.68,7.74-7.91,14.49-14.75,19.01-3.55,2.35-6.64,3.02-9.45,2.07-2.13-.72-3.63-2.31-4.72-3.47-12.31-13.07-24.25-27.28-23.48-44.63.18-3.98,1.34-11.35,7.14-15.98,3.4-2.71,7.44-3.73,11.34-4.7,1.51-.38,2.93-.73,4.3-1.18,10.2-3.34,18.05-12.72,19.52-23.36.24-1.71.32-3.46.42-5.3.12-2.42.24-4.92.73-7.44,1.97-10.12,9.36-18.05,15.3-24.42,8.55-9.17,18.05-17.44,29.61-15.8,8.62,1.22,14.53,7.53,20.24,13.63,5.07,5.42,9.86,10.54,16.17,11.9,4,.87,8.45.08,12.75-.67l1.61-.28c6.36-1.11,12.93-2.26,18.71-4.87,6.6-2.98,11.38-7.77,13.13-13.12,1.79-5.5.63-11.84-.4-17.44l-3.76-20.47c-.72-3.9-1.41-5.63-3.82-6.2-2.52-.6-5.3.41-7.09,2.57-.83,1.01-1.7,2.02-2.58,3.05-5.64,6.62-11.48,13.47-12.17,21.5-.04.52-.08,1.07-.12,1.62-.3,4.58-.76,11.49-7.44,12.62-1.79.3-3.7.01-5.51-.83-9.97-4.66-18.81-9.07-26.11-15.93-8.11-7.62-12.67-17.3-12.51-26.57.13-7.69,4.15-13.85,8.41-20.37,4.49-6.89,9.14-14.01,9.44-23.56l5.66.18c-.35,11.14-5.67,19.29-10.35,26.48-3.96,6.08-7.38,11.32-7.49,17.38-.13,7.67,3.78,15.82,10.73,22.34,6.69,6.28,15.11,10.48,24.63,14.92.53.25,1.34.52,2.17.38,1.93-.33,2.41-2.55,2.73-7.41.04-.59.08-1.17.13-1.73.84-9.83,7.56-17.73,13.5-24.69.86-1.01,1.71-2.01,2.53-2.99,3.15-3.8,8.16-5.56,12.76-4.47,6.4,1.52,7.46,7.26,8.09,10.69l3.76,20.47c1.09,5.95,2.45,13.35.21,20.22-2.24,6.87-8.14,12.89-16.18,16.53-6.43,2.91-13.37,4.12-20.07,5.29l-1.6.28c-4.84.85-9.85,1.73-14.93.63-8.04-1.74-13.66-7.75-19.1-13.57-5.27-5.63-10.25-10.96-16.89-11.9-8.99-1.27-17.17,6-24.67,14.05-5.45,5.84-12.22,13.12-13.88,21.64-.41,2.12-.52,4.31-.64,6.64-.09,1.89-.19,3.84-.46,5.8-1.76,12.73-11.15,23.97-23.37,27.96-1.56.51-3.15.91-4.69,1.29-3.47.87-6.75,1.69-9.19,3.64-2.96,2.36-4.78,6.66-5.01,11.8-.68,15.15,10.47,28.31,21.94,40.49.76.8,1.62,1.72,2.41,1.99,1.01.34,2.57-.15,4.51-1.43,5.8-3.83,10.25-9.56,12.52-16.13.6-1.74,1.08-3.57,1.58-5.51,1.35-5.23,2.75-10.64,6.9-14.69,3.12-3.04,7.12-4.57,10.66-5.92l17.37-6.63c1.89-.72,3.89-.73,5.62-.04,4.05,1.61,3.98,5.41,3.94,7.24v.14c-.08,4.45,2.65,12.02,7.52,20.84,2.43-4.51,10.67-19.19,16.77-22.29,2.24-1.14,4.04-9.46,4.81-13.02,1.02-4.71,1.44-6.66,3.23-7.54.85-.42,1.83-.43,2.69-.02,7.13,3.37,7,12.37,6.89,20.3-.11,7.82.08,13.02,3.66,13.99,6.6,1.79,19.84,7.72,22.74,17.33,1.44,4.78,3.11,4.56,6.15,4.16,2.04-.27,5.85-.78,7.33,3.06.63,1.62,1.76,3.21,3.47,4.85,2.83,2.72,5.42,5.06,8.45,6.24,2.49.97,6.1,1.08,8.13-.97.99-1,1.65-2.52,2.3-4.13,6.38-15.91,8.59-28.44-1.38-37.87-3.02-2.86-11.64-6.94-15.77-8.9l-.92-.44c-1.06-.5-2.19-1.03-3.37-1.59-20.61-9.69-27.79-14.03-26.99-19.04.18-1.16.95-2.1,2.09-2.58,1.06-.45,4.26-1.81,29.08,5.69,11.37,3.44,25.09,8.17,28.35,10.45,11.52,8.04,14.83,19.33,18.32,31.29,1.43,4.88,2.9,9.93,5,14.91,1.23,2.91,1.49,7.13,1.77,11.61.3,4.88.68,10.95,2.53,12.92,2.64,2.8,5.43,7.84,8.39,13.17,3.73,6.71,8.7,15.67,12.86,18.16.96-2.59,2.01-8.88,2.88-14.08,2.17-13.03,4.63-27.79,10.56-33.62,2.73-2.68,7.23-.9,12,.97,1.72.67,4.29,1.69,5.17,1.69.02,0,.04,0,.06,0,2.36-.27,4.38-.99,6.33-1.69,3.74-1.34,7.6-2.72,12.71-.44l-2.31,5.17c-3.04-1.35-5.21-.58-8.5.6-2.15.77-4.59,1.64-7.61,1.99-2.12.24-4.81-.82-7.92-2.04-1.78-.7-5.02-1.97-6.21-1.94-4.46,4.82-6.9,19.49-8.7,30.25-1.95,11.7-2.92,16.95-5.64,18.7-.63.41-1.33.61-2.05.61Z"/>
    <path class="cls-1" d="M1058.79,1173.17c-3.48,0-6.46-2.48-7.12-5.89-3.83-19.6-15.18-38.87-27.06-54.31-13.06-16.98-28.78-31.86-40.91-49.52-37.45-54.52-35.17-128.35-12.79-190.58,2.63-7.32,5.68-14.79,11.3-20.16s14.52-8.07,21.37-4.4c5.96,3.19,10.51,9.8,10.7,16.55,1.3,46.43-11.72,93.8,14.7,141.56,10.58,19.11,31.13,33.37,49.61,46.98,1.19.87,2.65-.66,1.72-1.8-22.63-27.89-32.43-66.07-25.31-101.35.58-2.89,1.34-5.89,3.31-8.07,4.51-4.99,13.27-3.1,17.78,1.88,4.52,4.98,6.05,11.87,7.93,18.32,6.46,22.15,18.95,42.51,35.77,58.3,10.33,9.7,22.41,17.9,30.13,29.78,7.08,10.9,9.87,23.99,12.02,36.81,4.32,25.71,6.65,51.75,6.97,77.82.05,3.99-3.17,7.26-7.16,7.29-40.19.31-66.29.83-103,.78Z"/>
    <rect class="cls-1" x="1054.09" y="1195.56" width="114.86" height="53.98" rx="10.78" ry="10.78"/>
    <path class="cls-1" d="M1530.32,1173.17c3.48,0,6.46-2.48,7.12-5.89,3.83-19.6,15.18-38.87,27.06-54.31,13.06-16.98,28.78-31.86,40.91-49.52,37.45-54.52,35.17-128.35,12.79-190.58-2.63-7.32-5.68-14.79-11.3-20.16-5.63-5.37-14.52-8.07-21.37-4.4-5.96,3.19-10.51,9.8-10.7,16.55-1.3,46.43,11.72,93.8-14.7,141.56-10.58,19.11-31.13,33.37-49.61,46.98-1.19.87-2.65-.66-1.72-1.8,22.63-27.89,32.43-66.07,25.31-101.35-.58-2.89-1.34-5.89-3.31-8.07-4.51-4.99-13.27-3.1-17.78,1.88s-6.05,11.87-7.93,18.32c-6.46,22.15-18.95,42.51-35.77,58.3-10.33,9.7-22.41,17.9-30.13,29.78-7.08,10.9-9.87,23.99-12.02,36.81-4.32,25.71-6.65,51.75-6.97,77.82-.05,3.99,3.17,7.26,7.16,7.29,40.19.31,66.29.83,103,.78Z"/>
    <rect class="cls-1" x="1420.16" y="1195.56" width="114.86" height="53.98" rx="10.78" ry="10.78" transform="translate(2955.17 2445.1) rotate(-180)"/>
    <path class="cls-1" d="M584.57,134.87c-3.73,0-7.38-1.38-10.19-3.94l-45.35-41.22c-6.19-5.63-6.65-15.21-1.02-21.4,5.63-6.19,15.21-6.65,21.4-1.02l31.91,29c24.08-33.8,72.45-80.51,91.97-93.69,6.94-4.68,16.35-2.86,21.04,4.08,4.68,6.94,2.86,16.35-4.08,21.04-22.09,14.91-79.69,73.52-92.08,98.7-2.1,4.27-6.09,7.3-10.76,8.19-.94.18-1.89.27-2.83.27Z"/>
    <path class="cls-1" d="M587.83,281.08c-3.73,0-7.38-1.38-10.19-3.94l-45.35-41.22c-6.19-5.63-6.65-15.21-1.02-21.4s15.21-6.65,21.4-1.02l31.91,29c24.08-33.8,72.45-80.51,91.97-93.69,6.94-4.68,16.35-2.86,21.04,4.08,4.68,6.94,2.86,16.35-4.08,21.04-22.09,14.91-79.69,73.52-92.08,98.7-2.1,4.27-6.09,7.3-10.76,8.19-.94.18-1.89.27-2.83.27Z"/>
    <path class="cls-1" d="M587.83,427.28c-3.73,0-7.38-1.38-10.19-3.94l-45.35-41.22c-6.19-5.63-6.65-15.21-1.02-21.4,5.63-6.19,15.21-6.65,21.4-1.02l31.91,29c24.08-33.8,72.45-80.51,91.97-93.69,6.94-4.68,16.35-2.86,21.04,4.08,4.68,6.94,2.86,16.35-4.08,21.04-22.09,14.91-79.69,73.52-92.08,98.7-2.1,4.27-6.09,7.3-10.76,8.19-.94.18-1.89.27-2.83.27Z"/>
    <path class="cls-1" d="M1057.31,82.59h-262.3c-8.37,0-15.15-6.78-15.15-15.15s6.78-15.15,15.15-15.15h262.3c8.37,0,15.15,6.78,15.15,15.15s-6.78,15.15-15.15,15.15Z"/>
    <path class="cls-1" d="M1060.57,228.79h-262.3c-8.37,0-15.15-6.78-15.15-15.15s6.78-15.15,15.15-15.15h262.3c8.37,0,15.15,6.78,15.15,15.15s-6.78,15.15-15.15,15.15Z"/>
    <path class="cls-1" d="M1057.31,375h-262.3c-8.37,0-15.15-6.78-15.15-15.15s6.78-15.15,15.15-15.15h262.3c8.37,0,15.15,6.78,15.15,15.15s-6.78,15.15-15.15,15.15Z"/>
    <path class="cls-1" d="M177.81,1168.71c-37.29,0-73.58-7.63-102.64-21.92-19.08-9.38-36.17-23.39-49.41-40.52-13.92-18-22.52-38.2-24.88-58.43-4.72-40.6,9.67-84,38.5-116.09,11.07-12.32,23.98-22.87,36.47-33.08,13.55-11.07,27.55-22.52,38.73-35.95,16.34-19.64,23.38-41.39,19.32-59.66-4.32-19.45-20.31-34.33-35.77-48.72-3.24-3.01-6.58-6.13-9.77-9.24-22.01-21.47-34.04-42.37-36.78-63.91-1.55-12.17.57-24.28,6.28-36.01,4.87-9.98,12.35-19.7,22.25-28.87,17.51-16.22,60.93-33.25,103.29-33.66,43.48-.43,87.88,9.58,128.41,28.93,40.53,19.35,76.23,47.58,103.24,81.66,23.94,30.2,42.02,59.56,55.26,89.76,13.68,31.19,22.74,64.43,27.69,101.61,3.94,29.56,2.37,78.18-7.07,108.38-5.18,16.56-14.12,33.1-27.34,50.56-24.88,32.88-57.69,59.67-94.87,77.47-53.42,25.58-105.19,40.29-162.9,46.27-9.34.97-18.71,1.44-28.03,1.44ZM87.59,624.37h0c-19.08,17.68-27.52,36.33-25.1,55.43,2.41,18.98,13.38,37.76,33.54,57.43,3.1,3.02,6.39,6.09,9.58,9.06,16.69,15.53,33.95,31.6,39.01,54.39,2.6,11.7,1.62,24.16-2.92,37.02-3.85,10.91-10.31,21.99-18.68,32.06-11.85,14.25-26.28,26.04-40.22,37.44-12.17,9.94-24.75,20.22-35.25,31.91-26.76,29.78-40.12,69.96-35.76,107.47,4.19,36.04,31.61,72.35,68.22,90.35,27.57,13.56,62.12,20.8,97.71,20.8,8.96,0,17.98-.46,26.97-1.39,56.42-5.85,107.03-20.22,159.28-45.25,35.61-17.05,67.03-42.71,90.86-74.19,12.44-16.43,20.81-31.87,25.61-47.2,8.87-28.36,10.37-75.88,6.67-103.64-9.46-70.98-33.59-126.6-80.67-185.99-52.17-65.8-136.42-106.43-220.4-106.43-.84,0-1.69,0-2.53.01-24.24.24-45.23,5.93-58.57,10.66-15.91,5.64-29.87,13.15-37.35,20.08Z"/>
    <path class="cls-1" d="M621.12,841.94c-8.78,0-16.64-1.52-23.11-4.52-10.61-4.9-17.57-13.75-20.14-25.58-4.12-18.95-.55-38.73,10.92-60.45,9.75-18.46,23.46-35.38,36.72-51.74,5.95-7.34,11.57-14.27,16.5-20.97,2.84-3.85,7.45-5.84,12.35-5.32,5.19.55,9.72,3.81,11.84,8.51h0c8.38,18.6,14.48,42.19,16.74,64.71,1.82,18.08,1.98,43.76-7.52,63.37-8.54,17.63-24.77,29.07-44.53,31.39-3.36.4-6.63.59-9.77.59ZM652.83,684.28c-.65,0-1.42.19-1.96.93-5.09,6.9-10.78,13.93-16.81,21.37-25.07,30.93-53.48,65.98-45.44,102.93,4.75,21.84,27.72,22.48,41,20.92,15.95-1.88,29.05-11.09,35.92-25.27,6.54-13.5,8.84-33.91,6.47-57.48-2.15-21.39-7.92-43.73-15.83-61.29-.62-1.37-1.99-1.98-2.97-2.09-.12-.01-.24-.02-.37-.02Z"/>
    <path class="cls-1" d="M499.6,1249.54c-3.42,0-6.62-1.26-9.22-3.67-6.33-5.88-8.07-17.75-7.01-26.29,15.54-125.39,46.35-250.41,91.59-371.58,8.43-22.59,22.87-18.91,33.41-16.22,3.29.84,6.39,1.63,9.4,1.84,6.11.42,17.27,1.47,23.38,3.69,2.04.74,6.71,3.29,6.1,11.02-.25,3.14-1.28,6.39-2.12,8.99l-.26.81c-38.44,121.89-79.65,244.75-122.5,365.17-2.24,6.3-4.78,13.43-9.72,19.32-3.08,3.67-6.5,5.9-10.18,6.64-.97.19-1.93.29-2.88.29ZM580.11,849.92l5.15,1.92c-44.94,120.37-75.55,244.55-90.98,369.09-.82,6.59.82,14.31,3.58,16.88.74.69,1.41.86,2.46.66,1.15-.23,2.5-1.24,3.91-2.92,3.67-4.37,5.76-10.25,7.78-15.94,42.8-120.29,83.97-243.03,122.37-364.79l.27-.85c.45-1.42,1.55-4.85,1.66-6.67-4.48-1.31-12.72-2.24-19.31-2.7-4.01-.28-7.75-1.23-11.36-2.15-10.58-2.7-15.41-3.93-20.39,9.41l-5.15-1.92Z"/>
    <g>
      <circle class="cls-1" cx="400.5" cy="903.75" r="49.1"/>
      <path class="cls-1" d="M400.5,958.2c-30.02,0-54.45-24.43-54.45-54.45s24.43-54.45,54.45-54.45,54.45,24.43,54.45,54.45-24.43,54.45-54.45,54.45ZM400.5,860.01c-24.12,0-43.74,19.62-43.74,43.74s19.62,43.74,43.74,43.74,43.74-19.62,43.74-43.74-19.62-43.74-43.74-43.74Z"/>
    </g>
    <g>
      <circle class="cls-1" cx="334.65" cy="753.15" r="43.48"/>
      <path class="cls-1" d="M334.65,801.79c-26.82,0-48.64-21.82-48.64-48.64s21.82-48.64,48.64-48.64,48.64,21.82,48.64,48.64-21.82,48.64-48.64,48.64ZM334.65,714.83c-21.13,0-38.32,17.19-38.32,38.32s17.19,38.32,38.32,38.32,38.32-17.19,38.32-38.32-17.19-38.32-38.32-38.32Z"/>
    </g>
    <g>
      <circle class="cls-1" cx="189.02" cy="688.21" r="41.77"/>
      <path class="cls-1" d="M189.02,735.48c-26.07,0-47.27-21.21-47.27-47.27s21.21-47.27,47.27-47.27,47.27,21.21,47.27,47.27-21.21,47.27-47.27,47.27ZM189.02,651.93c-20,0-36.27,16.27-36.27,36.27s16.27,36.27,36.27,36.27,36.27-16.27,36.27-36.27-16.27-36.27-36.27-36.27Z"/>
    </g>
    <g>
      <circle class="cls-1" cx="232.68" cy="868.08" r="44.55"/>
      <path class="cls-1" d="M232.68,917.97c-27.51,0-49.89-22.38-49.89-49.89s22.38-49.89,49.89-49.89,49.89,22.38,49.89,49.89-22.38,49.89-49.89,49.89ZM232.68,828.88c-21.62,0-39.21,17.59-39.21,39.21s17.59,39.21,39.21,39.21,39.21-17.59,39.21-39.21-17.59-39.21-39.21-39.21Z"/>
    </g>
    <g>
      <circle class="cls-1" cx="295.28" cy="1033.87" r="45.27"/>
      <path class="cls-1" d="M295.28,1084.65c-28,0-50.77-22.78-50.77-50.77s22.78-50.77,50.77-50.77,50.77,22.78,50.77,50.77-22.78,50.77-50.77,50.77ZM295.28,994.1c-21.93,0-39.78,17.84-39.78,39.78s17.84,39.78,39.78,39.78,39.78-17.84,39.78-39.78-17.84-39.78-39.78-39.78Z"/>
    </g>
    <g>
      <circle class="cls-1" cx="128.17" cy="1028.27" r="43.21"/>
      <path class="cls-1" d="M128.17,1076.98c-26.86,0-48.71-21.85-48.71-48.71s21.85-48.71,48.71-48.71,48.71,21.85,48.71,48.71-21.85,48.71-48.71,48.71ZM128.17,990.56c-20.79,0-37.71,16.92-37.71,37.71s16.92,37.71,37.71,37.71,37.71-16.92,37.71-37.71-16.92-37.71-37.71-37.71Z"/>
    </g>
  </g>
</svg>