<?xml version="1.0" encoding="UTF-8"?>
<svg id="Layer_2" data-name="Layer 2" xmlns="http://www.w3.org/2000/svg" viewBox="0 0 1743.12 1694.43">
  <defs>
    <style>
      .cls-1 {
        fill: #442f2a;
      }
    </style>
  </defs>
  <g id="Layer_1-2" data-name="Layer 1">
    <path class="cls-1" d="M1599.89,503.35c-6.9,0-12.5-5.6-12.5-12.5V32.5c0-4.14-3.36-7.5-7.5-7.5H121.41c-4.14,0-7.5,3.36-7.5,7.5v458.35c0,6.9-5.6,12.5-12.5,12.5s-12.5-5.6-12.5-12.5V32.5C88.91,14.58,103.49,0,121.41,0h1458.48c17.92,0,32.5,14.58,32.5,32.5v458.35c0,6.9-5.6,12.5-12.5,12.5Z"/>
    <path class="cls-1" d="M1579.89,1694.43H121.41c-17.92,0-32.5-14.58-32.5-32.5v-458.35c0-6.9,5.6-12.5,12.5-12.5s12.5,5.6,12.5,12.5v458.35c0,4.14,3.36,7.5,7.5,7.5h1458.48c4.14,0,7.5-3.36,7.5-7.5v-458.35c0-6.9,5.6-12.5,12.5-12.5s12.5,5.6,12.5,12.5v458.35c0,17.92-14.58,32.5-32.5,32.5Z"/>
    <g>
      <path class="cls-1" d="M39.73,1001.03l4.88-220.94c0-58.55-3.48-96.18-10.45-112.91L0,614.21l2.09-10.45c32.99-7.43,80.38-11.15,142.18-11.15,8.82,13.48,13.24,38.45,13.24,74.92s-2.33,85.5-6.97,147.06c-4.65,61.57-6.97,109.08-6.97,142.53s7.9,50.18,23.7,50.18c9.29,0,22.76-7.55,40.42-22.65,17.65-15.09,32.76-31.47,45.3-49.14,10.21-105,15.33-175.87,15.33-212.58s-5.12-70.85-15.33-102.46c24.62-12.55,65.05-22.06,121.27-28.58,5.11,16.73,7.67,40.32,7.67,70.74s-4.77,83.29-14.29,158.56c-9.53,75.27-14.29,125.11-14.29,149.5s7.08,36.59,21.26,36.59,33.33-13.47,57.5-40.42c24.15-26.94,46.35-60.52,66.56-100.71,20.21-40.18,31.47-76.55,33.8-109.08l-73.88-43.21c3.25-27.88,9.87-51.92,19.86-72.14,9.99-20.21,19.17-33.56,27.53-40.08l12.55-9.76c28.34,0,50.06,7.32,65.17,21.95,15.09,14.64,22.65,31.95,22.65,51.92,0,37.64-9.41,81.55-28.23,131.73-18.82,50.18-42.06,97.12-69.7,140.79-27.65,43.68-59.13,80.74-94.44,111.17-35.32,30.44-67.85,45.65-97.58,45.65-17.66,0-33.35-8.36-47.05-25.09-13.71-16.73-20.8-38.09-21.26-64.12-20.45,27.88-42.06,49.72-64.82,65.52-22.77,15.79-44.61,23.7-65.52,23.7s-39.15-8.71-54.71-26.14c-15.57-17.42-23.35-40.08-23.35-67.96Z"/>
      <path class="cls-1" d="M738.79,1095.12c-32.53,0-63.66-9.29-93.39-27.88-14.88-9.29-27.07-22.3-36.59-39.03-9.53-16.73-14.29-36-14.29-57.85,0-41.35,13.7-75.03,41.12-101.06,27.41-26.02,60.4-41.12,98.97-45.3-26.03-6.97-46.82-19.05-62.38-36.24-15.57-17.18-23.35-39.03-23.35-65.52,0-39.96,15.68-71.67,47.05-95.14,31.36-23.46,67.26-35.2,107.68-35.2s74.11,8.6,101.06,25.79c26.94,17.2,40.42,40.42,40.42,69.7,0,10.23-1.74,20.21-5.23,29.97-3.48,9.76-7.09,16.73-10.8,20.91l-4.88,6.97c-14.88,0-31.25-2.55-49.14-7.67-17.89-5.11-31.02-11.61-39.38-19.52l8.36-71.79c-6.97-6.97-18.71-10.45-35.2-10.45s-29.51,8.48-39.03,25.44c-9.53,16.97-14.29,36.36-14.29,58.2s2.55,38.33,7.67,49.48c5.11,11.15,12.31,19.75,21.61,25.79,14.4,9.3,31.36,15.8,50.88,19.52l-5.58,38.33c-33.45,0-62.5,9.88-87.12,29.62-24.63,19.76-36.94,45.89-36.94,78.41,0,20.45,6.62,37.29,19.86,50.53,13.24,13.24,30.32,19.86,51.23,19.86,38.09,0,77.12-19.28,117.09-57.85l27.88,25.79c-53.91,64.12-115,96.18-183.3,96.18Z"/>
      <path class="cls-1" d="M1154.18,1095.12c-25.09,0-56.92-4.65-95.48-13.94-24.17,6.5-46.7,9.76-67.61,9.76s-33-.7-36.24-2.09c3.25-27.88,17.08-96.53,41.47-205.96,24.39-109.42,36.59-178.08,36.59-205.95,0-5.58-3.03-13-9.06-22.3-6.04-9.29-12.09-17.18-18.12-23.7l-9.06-9.76,2.09-10.45c60.87-12.55,126.38-18.82,196.54-18.82,38.56,0,70.27,9.18,95.14,27.53,24.85,18.36,37.29,44.03,37.29,77.02,0,63.66-38.8,107.8-116.39,132.42,31.12,3.72,57.26,15.45,78.41,35.2,21.14,19.75,31.71,47.51,31.71,83.29,0,43.68-15.8,79.23-47.39,106.64-31.6,27.42-71.56,41.12-119.88,41.12ZM1141.64,847.7c-13.01,0-24.63,1.17-34.85,3.48-19.98,88.29-32.76,149.85-38.33,184.7,11.61,7.91,29.85,11.85,54.71,11.85s46.11-9.87,63.77-29.62c17.65-19.74,26.49-48.2,26.49-85.38,0-56.68-23.94-85.03-71.79-85.03ZM1180.67,635.12c-17.66,0-28.12,1.63-31.36,4.88-6.51,41.82-17.2,96.65-32.06,164.48,18.58,0,31.59-1.15,39.03-3.48,7.43-2.32,14.05-5.34,19.86-9.06,5.8-3.71,12.43-9.52,19.86-17.42,16.26-17.18,24.39-44.71,24.39-82.59s-13.24-56.8-39.73-56.8Z"/>
      <path class="cls-1" d="M1538.21,893.7c-12.54,0-22.07-.23-28.58-.7-19.98,87.36-31.13,148-33.46,181.91-19.98,9.76-50.42,14.64-91.3,14.64-8.83,0-14.88-.24-18.12-.7,3.25-27.41,17.18-96.29,41.82-206.65,24.62-110.35,36.94-179.93,36.94-208.74,0-5.58-3.14-12.89-9.41-21.95-6.27-9.06-12.67-16.61-19.17-22.65l-9.06-9.06,2.09-10.45c78.06-11.61,141.25-17.42,189.58-17.42,95.71,0,143.58,39.03,143.58,117.09,0,52.04-17.2,95.83-51.58,131.38-34.39,35.54-85.5,53.32-153.33,53.32ZM1527.05,847c35.77,0,62.84-13.47,81.2-40.42,18.35-26.94,27.53-62.96,27.53-108.03,0-18.58-3.48-33.8-10.45-45.65-6.97-11.85-17.2-17.77-30.67-17.77-8.83,0-19.75,1.63-32.76,4.88-7.44,48.79-21.38,117.79-41.82,207h6.97Z"/>
    </g>
  </g>
</svg>